<svg fill="none" height="100%" width="100%" viewBox="0 0 1080 1080" xmlns:xlink="http://www.w3.org/1999/xlink" xmlns="http://www.w3.org/2000/svg"><g id="i0"><g transform="translate(902.083,567.404)"><g transform="rotate(0)"><animateTransform repeatCount="indefinite" type="rotate" attributeName="transform" dur="1.292s" begin="0s" calcMode="spline" values="0; 15; -15; 0; 0" keyTimes="0; 0.32258; 0.645162; 0.967742; 1" keySplines="0 0 1 1; 0 0 1 1; 0 0 1 1; 0 0 1 1" fill="freeze" /><g transform="scale(2.49,2.49) translate(-707.905,-538.154)"><g id="i1" transform="matrix(1,0,0,1,710.904,523.154)"><path d="M32.42,-71.148C30.743,-69.726,28.108,-65.817,22.825,-59.736C21.064,-57.709,19.229,-55.677,17.469,-53.752C16.013,-52.159,16.238,-51.756,14.489,-53.02C14.47,-53.034,14.45,-53.048,14.431,-53.062C12.88,-54.18,12.253,-56.185,12.91,-57.98C13.799,-60.41,14.764,-63.033,15.724,-65.618C18.094,-72,21.058,-88.117,21.275,-89.577C21.777,-92.95,18.02,-96.205,15.547,-92.583C14.051,-90.393,10.026,-73.305,7.076,-66.273C6.284,-64.385,5.533,-62.51,4.844,-60.722C4.371,-59.493,3.103,-58.77,1.804,-58.982C1.804,-58.982,1.759,-58.989,1.759,-58.989C0.493,-59.195,-0.467,-60.237,-0.563,-61.516C-1.442,-73.172,-1.451,-91.063,-2.057,-93.615C-3.006,-97.612,-7.418,-100.94,-8.556,-96.619C-9.327,-93.692,-10.62,-72.619,-10.057,-61.328C-10.004,-60.265,-10.796,-59.36,-11.855,-59.25C-12.753,-59.156,-13.566,-59.63,-13.917,-60.417C-18.733,-71.202,-25.861,-86.942,-27.373,-89.257C-29.619,-92.696,-34.897,-94.334,-34.505,-89.883C-34.168,-86.058,-21.591,-52.245,-19.498,-48.157C-17.716,-44.675,-23.003,-43.41,-27.906,-44.19C-36.412,-45.544,-41.218,-40.35,-35.766,-38.284C-30.314,-36.218,-20.406,-34.224,-17.796,-28.665C-16.212,-25.292,-13.791,-19.924,-9.646,-16.077C-14.88,5.322,-22.775,37.66,-25.552,49.354C-29.847,67.441,-25.785,87.115,-17.012,95.4C-8.24,103.685,7.641,95.863,10.969,74.925C13.869,56.677,15.245,0.371,13.517,-18.284C16.417,-23.829,18.731,-34.059,20.243,-42.544C22.214,-46.876,26.339,-52.042,30.245,-57.722C34.336,-63.671,36.925,-66.512,37.648,-67.877C39.303,-71.002,35.924,-74.119,32.42,-71.148Z" /></g><g id="i2" transform="matrix(1,0,0,1,710.905,523.154)"><path d="M-6.579,-98.649C-4.864,-98.649,-2.691,-96.281,-2.058,-93.615C-1.452,-91.063,-1.443,-73.172,-0.564,-61.516C-0.468,-60.237,0.492,-59.196,1.758,-58.99C1.758,-58.99,1.803,-58.982,1.803,-58.982C1.954,-58.957,2.104,-58.946,2.253,-58.946C3.386,-58.946,4.424,-59.636,4.842,-60.722C5.531,-62.51,6.283,-64.385,7.075,-66.273C10.025,-73.305,14.05,-90.393,15.546,-92.583C16.315,-93.709,17.208,-94.17,18.058,-94.17C19.943,-94.17,21.62,-91.901,21.274,-89.577C21.057,-88.117,18.093,-72,15.723,-65.618C14.763,-63.033,13.798,-60.41,12.909,-57.98C12.252,-56.185,12.88,-54.18,14.43,-53.062C14.45,-53.048,14.469,-53.034,14.488,-53.02C15.191,-52.512,15.575,-52.273,15.878,-52.273C16.328,-52.273,16.598,-52.8,17.468,-53.752C19.228,-55.677,21.063,-57.709,22.824,-59.736C28.107,-65.817,30.742,-69.726,32.419,-71.148C33.415,-71.993,34.402,-72.345,35.265,-72.345C37.438,-72.345,38.832,-70.113,37.647,-67.877C36.924,-66.512,34.335,-63.671,30.244,-57.722C26.338,-52.042,22.213,-46.876,20.242,-42.544C18.73,-34.059,16.415,-23.829,13.515,-18.284C15.243,0.371,13.868,56.677,10.968,74.925C8.517,90.344,-0.739,98.649,-8.952,98.649C-11.892,98.649,-14.7,97.584,-17.013,95.4C-25.786,87.115,-29.848,67.441,-25.553,49.354C-22.776,37.66,-14.881,5.322,-9.647,-16.077C-13.791,-19.924,-16.213,-25.292,-17.797,-28.665C-20.407,-34.224,-30.315,-36.218,-35.767,-38.284C-40.604,-40.117,-37.367,-44.413,-30.634,-44.413C-29.779,-44.413,-28.866,-44.343,-27.907,-44.19C-26.979,-44.042,-26.037,-43.968,-25.132,-43.968C-21.256,-43.968,-18.054,-45.334,-19.499,-48.157C-21.592,-52.245,-34.169,-86.058,-34.506,-89.883C-34.675,-91.801,-33.792,-92.588,-32.551,-92.588C-30.913,-92.588,-28.652,-91.214,-27.374,-89.257C-25.862,-86.942,-18.734,-71.202,-13.918,-60.417C-13.596,-59.697,-12.888,-59.239,-12.082,-59.239C-12.008,-59.239,-11.932,-59.242,-11.856,-59.25C-10.797,-59.36,-10.005,-60.265,-10.058,-61.328C-10.621,-72.619,-9.328,-93.692,-8.557,-96.619C-8.178,-98.058,-7.436,-98.649,-6.579,-98.649" fill="#000000"><animate repeatCount="indefinite" attributeName="d" dur="1.292s" begin="0s" calcMode="spline" values="M-6.579,-98.649C-4.864,-98.649,-2.691,-96.281,-2.058,-93.615C-1.452,-91.063,-1.443,-73.172,-0.564,-61.516C-0.468,-60.237,0.492,-59.196,1.758,-58.99C1.758,-58.99,1.803,-58.982,1.803,-58.982C1.954,-58.957,2.104,-58.946,2.253,-58.946C3.386,-58.946,4.424,-59.636,4.842,-60.722C5.531,-62.51,6.283,-64.385,7.075,-66.273C10.025,-73.305,14.05,-90.393,15.546,-92.583C16.315,-93.709,17.208,-94.17,18.058,-94.17C19.943,-94.17,21.62,-91.901,21.274,-89.577C21.057,-88.117,18.093,-72,15.723,-65.618C14.763,-63.033,13.798,-60.41,12.909,-57.98C12.252,-56.185,12.88,-54.18,14.43,-53.062C14.45,-53.048,14.469,-53.034,14.488,-53.02C15.191,-52.512,15.575,-52.273,15.878,-52.273C16.328,-52.273,16.598,-52.8,17.468,-53.752C19.228,-55.677,21.063,-57.709,22.824,-59.736C28.107,-65.817,30.742,-69.726,32.419,-71.148C33.415,-71.993,34.402,-72.345,35.265,-72.345C37.438,-72.345,38.832,-70.113,37.647,-67.877C36.924,-66.512,34.335,-63.671,30.244,-57.722C26.338,-52.042,22.213,-46.876,20.242,-42.544C18.73,-34.059,16.415,-23.829,13.515,-18.284C15.243,0.371,13.868,56.677,10.968,74.925C8.517,90.344,-0.739,98.649,-8.952,98.649C-11.892,98.649,-14.7,97.584,-17.013,95.4C-25.786,87.115,-29.848,67.441,-25.553,49.354C-22.776,37.66,-14.881,5.322,-9.647,-16.077C-13.791,-19.924,-16.213,-25.292,-17.797,-28.665C-20.407,-34.224,-30.315,-36.218,-35.767,-38.284C-40.604,-40.117,-37.367,-44.413,-30.634,-44.413C-29.779,-44.413,-28.866,-44.343,-27.907,-44.19C-26.979,-44.042,-26.037,-43.968,-25.132,-43.968C-21.256,-43.968,-18.054,-45.334,-19.499,-48.157C-21.592,-52.245,-34.169,-86.058,-34.506,-89.883C-34.675,-91.801,-33.792,-92.588,-32.551,-92.588C-30.913,-92.588,-28.652,-91.214,-27.374,-89.257C-25.862,-86.942,-18.734,-71.202,-13.918,-60.417C-13.596,-59.697,-12.888,-59.239,-12.082,-59.239C-12.008,-59.239,-11.932,-59.242,-11.856,-59.25C-10.797,-59.36,-10.005,-60.265,-10.058,-61.328C-10.621,-72.619,-9.328,-93.692,-8.557,-96.619C-8.178,-98.058,-7.436,-98.649,-6.579,-98.649; M-6.579,-98.649C-4.864,-98.649,-2.691,-96.281,-2.058,-93.615C-1.452,-91.063,-1.443,-73.172,-0.564,-61.516C-0.468,-60.237,0.492,-59.196,1.758,-58.99C1.758,-58.99,1.803,-58.982,1.803,-58.982C1.954,-58.957,2.104,-58.946,2.253,-58.946C3.386,-58.946,4.424,-59.636,4.842,-60.722C5.531,-62.51,6.283,-64.385,7.075,-66.273C10.025,-73.305,14.05,-90.393,15.546,-92.583C16.315,-93.709,17.208,-94.17,18.058,-94.17C19.943,-94.17,21.62,-91.901,21.274,-89.577C21.057,-88.117,18.093,-72,15.723,-65.618C14.763,-63.033,13.798,-60.41,12.909,-57.98C12.252,-56.185,12.88,-54.18,14.43,-53.062C14.45,-53.048,14.469,-53.034,14.488,-53.02C15.191,-52.512,15.575,-52.273,15.878,-52.273C16.328,-52.273,16.598,-52.8,17.468,-53.752C19.228,-55.677,21.063,-57.709,22.824,-59.736C28.107,-65.817,30.742,-69.726,32.419,-71.148C33.415,-71.993,34.402,-72.345,35.265,-72.345C37.438,-72.345,38.832,-70.113,37.647,-67.877C36.924,-66.512,34.335,-63.671,30.244,-57.722C26.338,-52.042,22.213,-46.876,20.242,-42.544C18.73,-34.059,16.415,-23.829,13.515,-18.284C15.243,0.371,13.868,56.677,10.968,74.925C8.517,90.344,-0.739,98.649,-8.952,98.649C-11.892,98.649,-14.7,97.584,-17.013,95.4C-25.786,87.115,-17.873,70.974,-13.578,52.887C-10.801,41.193,-14.881,5.322,-9.647,-16.077C-13.791,-19.924,-16.213,-25.292,-17.797,-28.665C-20.407,-34.224,-30.315,-36.218,-35.767,-38.284C-40.604,-40.117,-37.367,-44.413,-30.634,-44.413C-29.779,-44.413,-28.866,-44.343,-27.907,-44.19C-26.979,-44.042,-26.037,-43.968,-25.132,-43.968C-21.256,-43.968,-18.054,-45.334,-19.499,-48.157C-21.592,-52.245,-34.169,-86.058,-34.506,-89.883C-34.675,-91.801,-33.792,-92.588,-32.551,-92.588C-30.913,-92.588,-28.652,-91.214,-27.374,-89.257C-25.862,-86.942,-18.734,-71.202,-13.918,-60.417C-13.596,-59.697,-12.888,-59.239,-12.082,-59.239C-12.008,-59.239,-11.932,-59.242,-11.856,-59.25C-10.797,-59.36,-10.005,-60.265,-10.058,-61.328C-10.621,-72.619,-9.328,-93.692,-8.557,-96.619C-8.178,-98.058,-7.436,-98.649,-6.579,-98.649; M-6.579,-98.649C-4.864,-98.649,-2.691,-96.281,-2.058,-93.615C-1.452,-91.063,-1.444,-73.172,-0.565,-61.516C-0.469,-60.237,0.492,-59.196,1.758,-58.99C1.758,-58.99,1.803,-58.982,1.803,-58.982C1.954,-58.957,2.104,-58.946,2.253,-58.946C3.386,-58.946,4.424,-59.636,4.842,-60.722C5.531,-62.51,6.283,-64.385,7.075,-66.273C10.025,-73.305,14.05,-90.393,15.546,-92.583C16.315,-93.709,17.208,-94.17,18.058,-94.17C19.943,-94.17,21.62,-91.901,21.274,-89.577C21.057,-88.117,18.093,-72,15.723,-65.618C14.763,-63.033,13.798,-60.41,12.909,-57.98C12.252,-56.185,12.879,-54.18,14.43,-53.062C14.45,-53.048,14.469,-53.034,14.488,-53.02C15.191,-52.512,15.575,-52.273,15.878,-52.273C16.328,-52.273,16.598,-52.8,17.468,-53.752C19.228,-55.677,21.063,-57.709,22.824,-59.736C28.107,-65.817,30.742,-69.726,32.419,-71.148C33.415,-71.993,34.402,-72.345,35.265,-72.345C37.438,-72.345,38.832,-70.113,37.647,-67.877C36.924,-66.512,34.335,-63.671,30.244,-57.722C26.338,-52.042,22.213,-46.876,20.242,-42.544C18.73,-34.059,16.415,-23.829,13.515,-18.284C15.243,0.371,7.525,55.236,4.625,73.484C2.174,88.903,-0.739,98.649,-8.952,98.649C-11.892,98.649,-14.7,97.584,-17.013,95.4C-25.786,87.115,-22.56,69.9,-18.265,51.813C-15.488,40.119,-14.881,5.322,-9.647,-16.077C-13.791,-19.924,-16.213,-25.292,-17.797,-28.665C-20.407,-34.224,-30.315,-36.218,-35.767,-38.284C-40.604,-40.117,-37.367,-44.413,-30.634,-44.413C-29.779,-44.413,-28.866,-44.343,-27.907,-44.19C-26.979,-44.042,-26.037,-43.968,-25.132,-43.968C-21.256,-43.968,-18.054,-45.334,-19.499,-48.157C-21.592,-52.245,-34.169,-86.058,-34.506,-89.883C-34.675,-91.801,-33.791,-92.588,-32.551,-92.588C-30.913,-92.588,-28.652,-91.214,-27.374,-89.257C-25.862,-86.942,-18.734,-71.202,-13.918,-60.417C-13.596,-59.697,-12.888,-59.239,-12.082,-59.239C-12.008,-59.239,-11.932,-59.242,-11.856,-59.25C-10.797,-59.36,-10.005,-60.265,-10.058,-61.328C-10.621,-72.619,-9.328,-93.692,-8.557,-96.619C-8.178,-98.058,-7.436,-98.649,-6.579,-98.649; M-6.579,-98.649C-4.864,-98.649,-2.691,-96.281,-2.058,-93.615C-1.452,-91.063,-1.444,-73.172,-0.565,-61.516C-0.469,-60.237,0.492,-59.196,1.758,-58.99C1.758,-58.99,1.803,-58.982,1.803,-58.982C1.954,-58.957,2.104,-58.946,2.253,-58.946C3.386,-58.946,4.424,-59.636,4.842,-60.722C5.531,-62.51,6.283,-64.385,7.075,-66.273C10.025,-73.305,14.05,-90.393,15.546,-92.583C16.315,-93.709,17.208,-94.17,18.058,-94.17C19.943,-94.17,21.62,-91.901,21.274,-89.577C21.057,-88.117,18.093,-72,15.723,-65.618C14.763,-63.033,13.798,-60.41,12.909,-57.98C12.252,-56.185,12.879,-54.18,14.43,-53.062C14.45,-53.048,14.469,-53.034,14.488,-53.02C15.191,-52.512,15.575,-52.273,15.878,-52.273C16.328,-52.273,16.598,-52.8,17.468,-53.752C19.228,-55.677,21.063,-57.709,22.824,-59.736C28.107,-65.817,30.742,-69.726,32.419,-71.148C33.415,-71.993,34.402,-72.345,35.265,-72.345C37.438,-72.345,38.832,-70.113,37.647,-67.877C36.924,-66.512,34.335,-63.671,30.244,-57.722C26.338,-52.042,22.213,-46.876,20.242,-42.544C18.73,-34.059,16.415,-23.829,13.515,-18.284C15.243,0.371,13.868,56.677,10.968,74.925C8.517,90.344,-0.739,98.649,-8.952,98.649C-11.892,98.649,-14.7,97.584,-17.013,95.4C-25.786,87.115,-29.848,67.441,-25.553,49.354C-22.776,37.66,-14.881,5.322,-9.647,-16.077C-13.791,-19.924,-16.213,-25.292,-17.797,-28.665C-20.407,-34.224,-30.315,-36.218,-35.767,-38.284C-40.604,-40.117,-37.367,-44.413,-30.634,-44.413C-29.779,-44.413,-28.866,-44.343,-27.907,-44.19C-26.979,-44.042,-26.037,-43.968,-25.132,-43.968C-21.256,-43.968,-18.054,-45.334,-19.499,-48.157C-21.592,-52.245,-34.169,-86.058,-34.506,-89.883C-34.675,-91.801,-33.791,-92.588,-32.551,-92.588C-30.913,-92.588,-28.652,-91.214,-27.374,-89.257C-25.862,-86.942,-18.734,-71.202,-13.918,-60.417C-13.596,-59.697,-12.888,-59.239,-12.082,-59.239C-12.008,-59.239,-11.932,-59.242,-11.856,-59.25C-10.797,-59.36,-10.005,-60.265,-10.058,-61.328C-10.621,-72.619,-9.328,-93.692,-8.557,-96.619C-8.178,-98.058,-7.436,-98.649,-6.579,-98.649; M-6.579,-98.649C-4.864,-98.649,-2.691,-96.281,-2.058,-93.615C-1.452,-91.063,-1.444,-73.172,-0.565,-61.516C-0.469,-60.237,0.492,-59.196,1.758,-58.99C1.758,-58.99,1.803,-58.982,1.803,-58.982C1.954,-58.957,2.104,-58.946,2.253,-58.946C3.386,-58.946,4.424,-59.636,4.842,-60.722C5.531,-62.51,6.283,-64.385,7.075,-66.273C10.025,-73.305,14.05,-90.393,15.546,-92.583C16.315,-93.709,17.208,-94.17,18.058,-94.17C19.943,-94.17,21.62,-91.901,21.274,-89.577C21.057,-88.117,18.093,-72,15.723,-65.618C14.763,-63.033,13.798,-60.41,12.909,-57.98C12.252,-56.185,12.879,-54.18,14.43,-53.062C14.45,-53.048,14.469,-53.034,14.488,-53.02C15.191,-52.512,15.575,-52.273,15.878,-52.273C16.328,-52.273,16.598,-52.8,17.468,-53.752C19.228,-55.677,21.063,-57.709,22.824,-59.736C28.107,-65.817,30.742,-69.726,32.419,-71.148C33.415,-71.993,34.402,-72.345,35.265,-72.345C37.438,-72.345,38.832,-70.113,37.647,-67.877C36.924,-66.512,34.335,-63.671,30.244,-57.722C26.338,-52.042,22.213,-46.876,20.242,-42.544C18.73,-34.059,16.415,-23.829,13.515,-18.284C15.243,0.371,13.868,56.677,10.968,74.925C8.517,90.344,-0.739,98.649,-8.952,98.649C-11.892,98.649,-14.7,97.584,-17.013,95.4C-25.786,87.115,-29.848,67.441,-25.553,49.354C-22.776,37.66,-14.881,5.322,-9.647,-16.077C-13.791,-19.924,-16.213,-25.292,-17.797,-28.665C-20.407,-34.224,-30.315,-36.218,-35.767,-38.284C-40.604,-40.117,-37.367,-44.413,-30.634,-44.413C-29.779,-44.413,-28.866,-44.343,-27.907,-44.19C-26.979,-44.042,-26.037,-43.968,-25.132,-43.968C-21.256,-43.968,-18.054,-45.334,-19.499,-48.157C-21.592,-52.245,-34.169,-86.058,-34.506,-89.883C-34.675,-91.801,-33.791,-92.588,-32.551,-92.588C-30.913,-92.588,-28.652,-91.214,-27.374,-89.257C-25.862,-86.942,-18.734,-71.202,-13.918,-60.417C-13.596,-59.697,-12.888,-59.239,-12.082,-59.239C-12.008,-59.239,-11.932,-59.242,-11.856,-59.25C-10.797,-59.36,-10.005,-60.265,-10.058,-61.328C-10.621,-72.619,-9.328,-93.692,-8.557,-96.619C-8.178,-98.058,-7.436,-98.649,-6.579,-98.649" keyTimes="0; 0.32258; 0.645162; 0.967742; 1" keySplines="0 0 1 1; 0 0 1 1; 0 0 1 1; 0 0 1 1" fill="freeze" /></path><path d="M-6.579,-100.922C-6.579,-100.922,-6.579,-100.922,-6.579,-100.922C-7.328,-100.922,-9.846,-100.654,-10.756,-97.198C-11.632,-93.87,-12.787,-73.954,-12.385,-62.558C-17.627,-74.279,-23.935,-88.148,-25.471,-90.5C-27.148,-93.068,-30.059,-94.861,-32.551,-94.861C-33.796,-94.861,-34.904,-94.4,-35.671,-93.563C-36.271,-92.908,-36.949,-91.703,-36.771,-89.683C-36.544,-87.108,-32.303,-75.205,-29.796,-68.339C-26.674,-59.79,-22.713,-49.448,-21.522,-47.121C-21.492,-47.062,-21.47,-47.013,-21.455,-46.973C-21.834,-46.693,-23.043,-46.242,-25.132,-46.242C-25.928,-46.242,-26.742,-46.306,-27.55,-46.435C-28.593,-46.601,-29.631,-46.686,-30.634,-46.686C-35.748,-46.686,-39.718,-44.508,-40.289,-41.39C-40.443,-40.551,-40.629,-37.695,-36.573,-36.158C-35.412,-35.718,-34.088,-35.291,-32.687,-34.839C-27.972,-33.317,-21.514,-31.234,-19.854,-27.699C-19.854,-27.699,-19.67,-27.305,-19.67,-27.305C-18.139,-24.038,-15.886,-19.229,-12.162,-15.362C-17.884,8.034,-25.113,37.659,-27.765,48.829C-32.138,67.243,-28.186,87.975,-18.574,97.053C-15.894,99.584,-12.566,100.922,-8.952,100.922C-4.059,100.922,0.841,98.499,4.849,94.1C9.107,89.426,11.999,82.919,13.213,75.282C14.571,66.74,15.706,49.264,16.25,28.533C16.766,8.857,16.607,-8.778,15.837,-17.838C18.794,-23.882,21.038,-34.109,22.428,-41.855C23.795,-44.749,26.269,-48.204,28.884,-51.856C29.942,-53.333,31.036,-54.861,32.117,-56.434C34.332,-59.655,36.088,-61.936,37.371,-63.601C38.536,-65.114,39.239,-66.029,39.655,-66.813C40.594,-68.586,40.583,-70.596,39.623,-72.19C38.708,-73.711,37.078,-74.619,35.265,-74.619C33.781,-74.619,32.289,-74.018,30.949,-72.882C29.894,-71.987,28.714,-70.51,26.93,-68.273C25.432,-66.395,23.567,-64.058,21.108,-61.227C19.62,-59.515,17.98,-57.683,15.79,-55.286C15.716,-55.205,15.645,-55.127,15.579,-55.052C14.988,-55.59,14.767,-56.443,15.044,-57.199C16.086,-60.046,17.005,-62.541,17.854,-64.827C20.341,-71.525,23.347,-88.057,23.523,-89.242C23.802,-91.115,23.229,-93.091,21.992,-94.526C20.942,-95.744,19.508,-96.443,18.058,-96.443C17.076,-96.443,15.201,-96.109,13.669,-93.865C12.813,-92.611,11.866,-89.494,9.75,-82.146C8.192,-76.736,6.427,-70.604,4.979,-67.152C4.205,-65.307,3.445,-63.418,2.721,-61.539C2.646,-61.344,2.462,-61.219,2.253,-61.219C2.225,-61.219,2.197,-61.221,2.168,-61.226C2.168,-61.226,2.124,-61.233,2.124,-61.233C1.893,-61.271,1.719,-61.457,1.702,-61.687C1.266,-67.463,1.049,-74.679,0.858,-81.045C0.629,-88.663,0.493,-92.705,0.153,-94.14C-0.621,-97.402,-3.415,-100.922,-6.579,-100.922C-6.579,-100.922,-6.579,-100.922,-6.579,-100.922C-6.579,-100.922,-6.579,-100.922,-6.579,-100.922Z" fill="#000000"><animate repeatCount="indefinite" attributeName="d" dur="1.292s" begin="0s" calcMode="spline" values="M-6.579,-100.922C-6.579,-100.922,-6.579,-100.922,-6.579,-100.922C-7.328,-100.922,-9.846,-100.654,-10.756,-97.198C-11.632,-93.87,-12.787,-73.954,-12.385,-62.558C-17.627,-74.279,-23.935,-88.148,-25.471,-90.5C-27.148,-93.068,-30.059,-94.861,-32.551,-94.861C-33.796,-94.861,-34.904,-94.4,-35.671,-93.563C-36.271,-92.908,-36.949,-91.703,-36.771,-89.683C-36.544,-87.108,-32.303,-75.205,-29.796,-68.339C-26.674,-59.79,-22.713,-49.448,-21.522,-47.121C-21.492,-47.062,-21.47,-47.013,-21.455,-46.973C-21.834,-46.693,-23.043,-46.242,-25.132,-46.242C-25.928,-46.242,-26.742,-46.306,-27.55,-46.435C-28.593,-46.601,-29.631,-46.686,-30.634,-46.686C-35.748,-46.686,-39.718,-44.508,-40.289,-41.39C-40.443,-40.551,-40.629,-37.695,-36.573,-36.158C-35.412,-35.718,-34.088,-35.291,-32.687,-34.839C-27.972,-33.317,-21.514,-31.234,-19.854,-27.699C-19.854,-27.699,-19.67,-27.305,-19.67,-27.305C-18.139,-24.038,-15.886,-19.229,-12.162,-15.362C-17.884,8.034,-25.113,37.659,-27.765,48.829C-32.138,67.243,-28.186,87.975,-18.574,97.053C-15.894,99.584,-12.566,100.922,-8.952,100.922C-4.059,100.922,0.841,98.499,4.849,94.1C9.107,89.426,11.999,82.919,13.213,75.282C14.571,66.74,15.706,49.264,16.25,28.533C16.766,8.857,16.607,-8.778,15.837,-17.838C18.794,-23.882,21.038,-34.109,22.428,-41.855C23.795,-44.749,26.269,-48.204,28.884,-51.856C29.942,-53.333,31.036,-54.861,32.117,-56.434C34.332,-59.655,36.088,-61.936,37.371,-63.601C38.536,-65.114,39.239,-66.029,39.655,-66.813C40.594,-68.586,40.583,-70.596,39.623,-72.19C38.708,-73.711,37.078,-74.619,35.265,-74.619C33.781,-74.619,32.289,-74.018,30.949,-72.882C29.894,-71.987,28.714,-70.51,26.93,-68.273C25.432,-66.395,23.567,-64.058,21.108,-61.227C19.62,-59.515,17.98,-57.683,15.79,-55.286C15.716,-55.205,15.645,-55.127,15.579,-55.052C14.988,-55.59,14.767,-56.443,15.044,-57.199C16.086,-60.046,17.005,-62.541,17.854,-64.827C20.341,-71.525,23.347,-88.057,23.523,-89.242C23.802,-91.115,23.229,-93.091,21.992,-94.526C20.942,-95.744,19.508,-96.443,18.058,-96.443C17.076,-96.443,15.201,-96.109,13.669,-93.865C12.813,-92.611,11.866,-89.494,9.75,-82.146C8.192,-76.736,6.427,-70.604,4.979,-67.152C4.205,-65.307,3.445,-63.418,2.721,-61.539C2.646,-61.344,2.462,-61.219,2.253,-61.219C2.225,-61.219,2.197,-61.221,2.168,-61.226C2.168,-61.226,2.124,-61.233,2.124,-61.233C1.893,-61.271,1.719,-61.457,1.702,-61.687C1.266,-67.463,1.049,-74.679,0.858,-81.045C0.629,-88.663,0.493,-92.705,0.153,-94.14C-0.621,-97.402,-3.415,-100.922,-6.579,-100.922C-6.579,-100.922,-6.579,-100.922,-6.579,-100.922C-6.579,-100.922,-6.579,-100.922,-6.579,-100.922Z; M-6.579,-100.922C-6.579,-100.922,-6.579,-100.922,-6.579,-100.922C-7.328,-100.922,-9.846,-100.654,-10.756,-97.198C-11.632,-93.87,-12.787,-73.954,-12.385,-62.558C-17.627,-74.279,-23.935,-88.148,-25.471,-90.5C-27.148,-93.068,-30.059,-94.861,-32.551,-94.861C-33.796,-94.861,-34.904,-94.4,-35.671,-93.563C-36.271,-92.908,-36.949,-91.703,-36.771,-89.683C-36.544,-87.108,-32.303,-75.205,-29.796,-68.339C-26.674,-59.79,-22.713,-49.448,-21.522,-47.121C-21.492,-47.062,-21.47,-47.013,-21.455,-46.973C-21.834,-46.693,-23.043,-46.242,-25.132,-46.242C-25.928,-46.242,-26.742,-46.306,-27.55,-46.435C-28.593,-46.601,-29.631,-46.686,-30.634,-46.686C-35.748,-46.686,-39.718,-44.508,-40.289,-41.39C-40.443,-40.551,-40.629,-37.695,-36.573,-36.158C-35.412,-35.718,-34.088,-35.291,-32.687,-34.839C-27.972,-33.317,-21.514,-31.234,-19.854,-27.699C-19.854,-27.699,-19.67,-27.305,-19.67,-27.305C-18.139,-24.038,-15.886,-19.229,-12.162,-15.362C-17.884,8.034,-7.664,41.911,-10.316,53.081C-14.689,71.495,-23.289,88.862,-13.677,97.94C-10.997,100.471,-12.566,100.922,-8.952,100.922C-4.059,100.922,0.841,98.499,4.849,94.1C9.107,89.426,11.999,82.919,13.213,75.282C14.571,66.74,15.706,49.264,16.25,28.533C16.766,8.857,16.607,-8.778,15.837,-17.838C18.794,-23.882,21.038,-34.109,22.428,-41.855C23.795,-44.749,26.269,-48.204,28.884,-51.856C29.942,-53.333,31.036,-54.861,32.117,-56.434C34.332,-59.655,36.088,-61.936,37.371,-63.601C38.536,-65.114,39.239,-66.029,39.655,-66.813C40.594,-68.586,40.583,-70.596,39.623,-72.19C38.708,-73.711,37.078,-74.619,35.265,-74.619C33.781,-74.619,32.289,-74.018,30.949,-72.882C29.894,-71.987,28.714,-70.51,26.93,-68.273C25.432,-66.395,23.567,-64.058,21.108,-61.227C19.62,-59.515,17.98,-57.683,15.79,-55.286C15.716,-55.205,15.645,-55.127,15.579,-55.052C14.988,-55.59,14.767,-56.443,15.044,-57.199C16.086,-60.046,17.005,-62.541,17.854,-64.827C20.341,-71.525,23.347,-88.057,23.523,-89.242C23.802,-91.115,23.229,-93.091,21.992,-94.526C20.942,-95.744,19.508,-96.443,18.058,-96.443C17.076,-96.443,15.201,-96.109,13.669,-93.865C12.813,-92.611,11.866,-89.494,9.75,-82.146C8.192,-76.736,6.427,-70.604,4.979,-67.152C4.205,-65.307,3.445,-63.418,2.721,-61.539C2.646,-61.344,2.462,-61.219,2.253,-61.219C2.225,-61.219,2.197,-61.221,2.168,-61.226C2.168,-61.226,2.124,-61.233,2.124,-61.233C1.893,-61.271,1.719,-61.457,1.702,-61.687C1.266,-67.463,1.049,-74.679,0.858,-81.045C0.629,-88.663,0.493,-92.705,0.153,-94.14C-0.621,-97.402,-3.415,-100.922,-6.579,-100.922C-6.579,-100.922,-6.579,-100.922,-6.579,-100.922C-6.579,-100.922,-6.579,-100.922,-6.579,-100.922Z; M-6.579,-100.922C-6.579,-100.922,-6.579,-100.922,-6.579,-100.922C-7.328,-100.922,-9.845,-100.654,-10.755,-97.198C-11.632,-93.87,-12.787,-73.954,-12.385,-62.558C-17.627,-74.279,-23.935,-88.148,-25.471,-90.5C-27.148,-93.068,-30.059,-94.861,-32.551,-94.861C-33.796,-94.861,-34.904,-94.4,-35.671,-93.563C-36.271,-92.908,-36.949,-91.703,-36.771,-89.683C-36.544,-87.108,-32.303,-75.205,-29.796,-68.339C-26.674,-59.79,-22.713,-49.448,-21.522,-47.121C-21.492,-47.062,-21.47,-47.012,-21.455,-46.973C-21.834,-46.693,-23.043,-46.242,-25.132,-46.242C-25.928,-46.242,-26.742,-46.306,-27.55,-46.435C-28.593,-46.601,-29.631,-46.686,-30.634,-46.686C-35.748,-46.686,-39.718,-44.508,-40.289,-41.39C-40.443,-40.551,-40.629,-37.695,-36.573,-36.158C-35.412,-35.718,-34.088,-35.291,-32.687,-34.839C-27.972,-33.317,-21.514,-31.234,-19.854,-27.699C-19.854,-27.699,-19.67,-27.305,-19.67,-27.305C-18.139,-24.038,-15.886,-19.229,-12.162,-15.362C-17.884,8.034,-14.107,41.049,-16.759,52.219C-21.132,70.633,-28.186,87.975,-18.574,97.053C-15.894,99.584,-12.566,100.922,-8.952,100.922C-4.059,100.922,-8.794,96.305,-4.786,91.906C-0.528,87.232,2.363,80.725,3.577,73.088C4.935,64.546,15.706,49.264,16.25,28.533C16.766,8.857,16.607,-8.778,15.837,-17.838C18.794,-23.882,21.037,-34.109,22.427,-41.855C23.794,-44.749,26.269,-48.204,28.884,-51.856C29.942,-53.333,31.036,-54.861,32.117,-56.434C34.332,-59.655,36.088,-61.936,37.371,-63.601C38.536,-65.114,39.239,-66.028,39.655,-66.812C40.594,-68.585,40.582,-70.596,39.622,-72.19C38.707,-73.711,37.078,-74.619,35.265,-74.619C33.781,-74.619,32.289,-74.018,30.949,-72.882C29.894,-71.987,28.714,-70.51,26.93,-68.273C25.432,-66.395,23.567,-64.058,21.108,-61.227C19.62,-59.515,17.98,-57.683,15.79,-55.286C15.716,-55.205,15.645,-55.127,15.579,-55.052C14.988,-55.59,14.767,-56.442,15.044,-57.198C16.086,-60.045,17.005,-62.541,17.854,-64.827C20.341,-71.525,23.347,-88.057,23.523,-89.242C23.802,-91.115,23.229,-93.091,21.992,-94.526C20.942,-95.744,19.508,-96.443,18.058,-96.443C17.076,-96.443,15.201,-96.109,13.669,-93.865C12.813,-92.611,11.866,-89.494,9.75,-82.146C8.192,-76.736,6.427,-70.604,4.979,-67.152C4.205,-65.307,3.445,-63.418,2.721,-61.539C2.646,-61.344,2.462,-61.219,2.253,-61.219C2.225,-61.219,2.197,-61.221,2.168,-61.226C2.168,-61.226,2.124,-61.233,2.124,-61.233C1.893,-61.271,1.719,-61.457,1.702,-61.687C1.266,-67.463,1.049,-74.679,0.858,-81.045C0.629,-88.663,0.493,-92.705,0.153,-94.14C-0.621,-97.402,-3.415,-100.922,-6.579,-100.922C-6.579,-100.922,-6.579,-100.922,-6.579,-100.922C-6.579,-100.922,-6.579,-100.922,-6.579,-100.922Z; M-6.579,-100.922C-6.579,-100.922,-6.579,-100.922,-6.579,-100.922C-7.328,-100.922,-9.845,-100.654,-10.755,-97.198C-11.632,-93.87,-12.787,-73.954,-12.385,-62.558C-17.627,-74.279,-23.935,-88.148,-25.471,-90.5C-27.148,-93.068,-30.059,-94.861,-32.551,-94.861C-33.796,-94.861,-34.904,-94.4,-35.671,-93.563C-36.271,-92.908,-36.949,-91.703,-36.771,-89.683C-36.544,-87.108,-32.303,-75.205,-29.796,-68.339C-26.674,-59.79,-22.713,-49.448,-21.522,-47.121C-21.492,-47.062,-21.47,-47.012,-21.455,-46.973C-21.834,-46.693,-23.043,-46.242,-25.132,-46.242C-25.928,-46.242,-26.742,-46.306,-27.55,-46.435C-28.593,-46.601,-29.631,-46.686,-30.634,-46.686C-35.748,-46.686,-39.718,-44.508,-40.289,-41.39C-40.443,-40.551,-40.629,-37.695,-36.573,-36.158C-35.412,-35.718,-34.088,-35.291,-32.687,-34.839C-27.972,-33.317,-21.514,-31.234,-19.854,-27.699C-19.854,-27.699,-19.67,-27.305,-19.67,-27.305C-18.139,-24.038,-15.886,-19.229,-12.162,-15.362C-17.884,8.034,-25.113,37.659,-27.765,48.829C-32.138,67.243,-28.186,87.975,-18.574,97.053C-15.894,99.584,-12.566,100.922,-8.952,100.922C-4.059,100.922,0.841,98.499,4.849,94.1C9.107,89.426,11.999,82.919,13.213,75.282C14.571,66.74,15.706,49.264,16.25,28.533C16.766,8.857,16.607,-8.778,15.837,-17.838C18.794,-23.882,21.037,-34.109,22.427,-41.855C23.794,-44.749,26.269,-48.204,28.884,-51.856C29.942,-53.333,31.036,-54.861,32.117,-56.434C34.332,-59.655,36.088,-61.936,37.371,-63.601C38.536,-65.114,39.239,-66.028,39.655,-66.812C40.594,-68.585,40.582,-70.596,39.622,-72.19C38.707,-73.711,37.078,-74.619,35.265,-74.619C33.781,-74.619,32.289,-74.018,30.949,-72.882C29.894,-71.987,28.714,-70.51,26.93,-68.273C25.432,-66.395,23.567,-64.058,21.108,-61.227C19.62,-59.515,17.98,-57.683,15.79,-55.286C15.716,-55.205,15.645,-55.127,15.579,-55.052C14.988,-55.59,14.767,-56.442,15.044,-57.198C16.086,-60.045,17.005,-62.541,17.854,-64.827C20.341,-71.525,23.347,-88.057,23.523,-89.242C23.802,-91.115,23.229,-93.091,21.992,-94.526C20.942,-95.744,19.508,-96.443,18.058,-96.443C17.076,-96.443,15.201,-96.109,13.669,-93.865C12.813,-92.611,11.866,-89.494,9.75,-82.146C8.192,-76.736,6.427,-70.604,4.979,-67.152C4.205,-65.307,3.445,-63.418,2.721,-61.539C2.646,-61.344,2.462,-61.219,2.253,-61.219C2.225,-61.219,2.197,-61.221,2.168,-61.226C2.168,-61.226,2.124,-61.233,2.124,-61.233C1.893,-61.271,1.719,-61.457,1.702,-61.687C1.266,-67.463,1.049,-74.679,0.858,-81.045C0.629,-88.663,0.493,-92.705,0.153,-94.14C-0.621,-97.402,-3.415,-100.922,-6.579,-100.922C-6.579,-100.922,-6.579,-100.922,-6.579,-100.922C-6.579,-100.922,-6.579,-100.922,-6.579,-100.922Z; M-6.579,-100.922C-6.579,-100.922,-6.579,-100.922,-6.579,-100.922C-7.328,-100.922,-9.845,-100.654,-10.755,-97.198C-11.632,-93.87,-12.787,-73.954,-12.385,-62.558C-17.627,-74.279,-23.935,-88.148,-25.471,-90.5C-27.148,-93.068,-30.059,-94.861,-32.551,-94.861C-33.796,-94.861,-34.904,-94.4,-35.671,-93.563C-36.271,-92.908,-36.949,-91.703,-36.771,-89.683C-36.544,-87.108,-32.303,-75.205,-29.796,-68.339C-26.674,-59.79,-22.713,-49.448,-21.522,-47.121C-21.492,-47.062,-21.47,-47.012,-21.455,-46.973C-21.834,-46.693,-23.043,-46.242,-25.132,-46.242C-25.928,-46.242,-26.742,-46.306,-27.55,-46.435C-28.593,-46.601,-29.631,-46.686,-30.634,-46.686C-35.748,-46.686,-39.718,-44.508,-40.289,-41.39C-40.443,-40.551,-40.629,-37.695,-36.573,-36.158C-35.412,-35.718,-34.088,-35.291,-32.687,-34.839C-27.972,-33.317,-21.514,-31.234,-19.854,-27.699C-19.854,-27.699,-19.67,-27.305,-19.67,-27.305C-18.139,-24.038,-15.886,-19.229,-12.162,-15.362C-17.884,8.034,-25.113,37.659,-27.765,48.829C-32.138,67.243,-28.186,87.975,-18.574,97.053C-15.894,99.584,-12.566,100.922,-8.952,100.922C-4.059,100.922,0.841,98.499,4.849,94.1C9.107,89.426,11.999,82.919,13.213,75.282C14.571,66.74,15.706,49.264,16.25,28.533C16.766,8.857,16.607,-8.778,15.837,-17.838C18.794,-23.882,21.037,-34.109,22.427,-41.855C23.794,-44.749,26.269,-48.204,28.884,-51.856C29.942,-53.333,31.036,-54.861,32.117,-56.434C34.332,-59.655,36.088,-61.936,37.371,-63.601C38.536,-65.114,39.239,-66.028,39.655,-66.812C40.594,-68.585,40.582,-70.596,39.622,-72.19C38.707,-73.711,37.078,-74.619,35.265,-74.619C33.781,-74.619,32.289,-74.018,30.949,-72.882C29.894,-71.987,28.714,-70.51,26.93,-68.273C25.432,-66.395,23.567,-64.058,21.108,-61.227C19.62,-59.515,17.98,-57.683,15.79,-55.286C15.716,-55.205,15.645,-55.127,15.579,-55.052C14.988,-55.59,14.767,-56.442,15.044,-57.198C16.086,-60.045,17.005,-62.541,17.854,-64.827C20.341,-71.525,23.347,-88.057,23.523,-89.242C23.802,-91.115,23.229,-93.091,21.992,-94.526C20.942,-95.744,19.508,-96.443,18.058,-96.443C17.076,-96.443,15.201,-96.109,13.669,-93.865C12.813,-92.611,11.866,-89.494,9.75,-82.146C8.192,-76.736,6.427,-70.604,4.979,-67.152C4.205,-65.307,3.445,-63.418,2.721,-61.539C2.646,-61.344,2.462,-61.219,2.253,-61.219C2.225,-61.219,2.197,-61.221,2.168,-61.226C2.168,-61.226,2.124,-61.233,2.124,-61.233C1.893,-61.271,1.719,-61.457,1.702,-61.687C1.266,-67.463,1.049,-74.679,0.858,-81.045C0.629,-88.663,0.493,-92.705,0.153,-94.14C-0.621,-97.402,-3.415,-100.922,-6.579,-100.922C-6.579,-100.922,-6.579,-100.922,-6.579,-100.922C-6.579,-100.922,-6.579,-100.922,-6.579,-100.922Z" keyTimes="0; 0.32258; 0.645162; 0.967742; 1" keySplines="0 0 1 1; 0 0 1 1; 0 0 1 1; 0 0 1 1" fill="freeze" /></path></g></g></g></g></g><g transform="matrix(2.49,0,0,2.49,484,572)" id="i3"><g id="i4"><g id="i5"><g id="i6"><g id="i2"><path fill="#1a1a1a" d="M-3.164,-148.396C-9.933,-140.455,-18.941,-134.556,-28.869,-131.372C-31.691,-130.467,-34.583,-129.815,-37.514,-129.383C-38.229,-129.278,-38.765,-128.716,-38.884,-128.014C-40.635,-117.675,-41.97,-107.244,-42.961,-96.806C-42.105,-97.154,-41.25,-97.501,-40.394,-97.849C-43.443,-99.787,-47.855,-98.883,-50.904,-97.338C-54.064,-95.737,-56.615,-93.111,-58.084,-89.881C-59.772,-86.17,-59.528,-82.339,-58.864,-78.418C-58.145,-74.169,-56.868,-70.178,-53.81,-67.016C-50.848,-63.952,-46.672,-62.029,-42.369,-62.973C-42.968,-63.43,-43.567,-63.886,-44.166,-64.343C-43.967,-59.711,-43.572,-55.071,-42.705,-50.512C-42.009,-46.854,-41.054,-43.119,-39.343,-39.79C-37.749,-36.689,-35.358,-34.08,-32.857,-31.687C-30.1,-29.049,-27.087,-26.679,-23.972,-24.479C-20.767,-22.215,-17.431,-20.108,-13.959,-18.277C-14.277,-18.838,-14.596,-19.4,-14.914,-19.961C-15.6,-9.816,-16.957,0.293,-17.953,10.411C-18.164,12.557,-18.379,14.704,-18.525,16.856C-18.583,17.718,-18.061,18.531,-17.157,18.654C-11.584,19.41,-6.01,20.167,-0.437,20.923C8.37,22.118,17.176,23.314,25.983,24.509C27.998,24.782,30.013,25.055,32.028,25.329C32.926,25.451,33.652,24.809,33.826,23.961C35.868,14,37.256,3.895,38.992,-6.122C39.36,-8.247,39.726,-10.373,40.159,-12.486C39.703,-12.03,39.246,-11.573,38.79,-11.117C45.849,-12.661,52.869,-15.082,59.317,-18.347C62.423,-19.92,65.546,-21.722,68.068,-24.153C70.708,-26.698,72.677,-29.893,74.373,-33.119C76.773,-37.686,78.591,-42.546,80.176,-47.447C79.477,-47.167,78.778,-46.886,78.079,-46.606C81.477,-44.843,85.544,-45.146,88.915,-46.82C90.798,-47.755,92.471,-49.024,93.929,-50.535C95.291,-51.947,96.294,-53.698,97.196,-55.427C99.076,-59.03,100.71,-62.807,100.524,-66.944C100.367,-70.446,98.885,-73.962,96.487,-76.518C93.958,-79.214,89.767,-81.852,85.903,-81C86.502,-80.401,87.1,-79.801,87.699,-79.202C89.583,-89.89,91.151,-100.68,92.186,-111.486C92.236,-112.003,92.064,-112.665,91.587,-112.96C86.781,-115.93,82.475,-119.626,78.824,-123.938C77.499,-125.503,74.949,-123.577,76.281,-122.004C80.105,-117.488,84.582,-113.556,89.619,-110.443C89.419,-110.934,89.219,-111.425,89.02,-111.916C87.985,-101.11,86.417,-90.319,84.533,-79.631C84.363,-78.669,85.331,-77.613,86.33,-77.833C88.936,-78.407,91.794,-76.629,93.614,-74.909C95.632,-73.001,96.916,-70.354,97.263,-67.609C97.69,-64.23,96.451,-61.253,95.035,-58.253C94.285,-56.664,93.469,-55.092,92.412,-53.683C91.389,-52.32,90.072,-51.208,88.637,-50.299C85.826,-48.518,82.347,-47.981,79.334,-49.544C78.616,-49.916,77.489,-49.481,77.237,-48.703C75.866,-44.463,74.316,-40.269,72.379,-36.252C70.822,-33.025,69.004,-29.857,66.592,-27.186C64.648,-25.033,61.804,-23.261,59.144,-21.845C55.845,-20.089,52.382,-18.64,48.867,-17.376C45.432,-16.141,41.929,-15.064,38.362,-14.284C37.626,-14.123,37.145,-13.655,36.993,-12.916C34.951,-2.955,33.563,7.15,31.827,17.167C31.459,19.292,31.093,21.419,30.66,23.532C31.259,23.076,31.859,22.62,32.458,22.164C26.885,21.408,21.311,20.65,15.738,19.894C6.931,18.699,-1.875,17.504,-10.682,16.309C-12.697,16.036,-14.712,15.761,-16.727,15.488C-16.271,16.087,-15.815,16.687,-15.359,17.286C-14.672,7.141,-13.316,-2.968,-12.32,-13.086C-12.109,-15.232,-11.894,-17.379,-11.748,-19.531C-11.697,-20.29,-12.041,-20.866,-12.703,-21.215C-18.782,-24.42,-24.573,-28.465,-29.671,-33.072C-32.068,-35.238,-34.406,-37.625,-36.067,-40.419C-37.683,-43.137,-38.666,-46.699,-39.333,-49.908C-40.349,-54.794,-40.785,-59.79,-40.999,-64.77C-41.034,-65.585,-42.009,-66.313,-42.796,-66.14C-45.792,-65.483,-48.591,-66.549,-50.836,-68.554C-53.368,-70.815,-54.676,-73.828,-55.365,-77.088C-56.055,-80.351,-56.764,-83.935,-55.701,-87.196C-54.833,-89.859,-53.139,-92.135,-50.821,-93.709C-49.54,-94.579,-48.056,-95.2,-46.535,-95.49C-45.78,-95.634,-45.002,-95.728,-44.232,-95.73C-43.764,-95.731,-43.3,-95.699,-42.859,-95.539C-42.675,-95.472,-41.923,-95.054,-42.363,-95.333C-41.404,-94.724,-39.919,-95.069,-39.795,-96.376C-38.804,-106.814,-37.469,-117.246,-35.718,-127.585C-36.174,-127.129,-36.631,-126.672,-37.087,-126.216C-26.161,-127.828,-15.721,-132.586,-7.318,-139.752C-4.923,-141.794,-2.69,-144.032,-0.648,-146.427C0.69,-147.996,-1.833,-149.957,-3.164,-148.396C-3.164,-148.396,-3.164,-148.396,-3.164,-148.396Z" /></g></g><g id="i7"><path fill="#1a1a1a" d="M62.395,-4.963C59.829,-0.558,59.311,4.962,60.927,9.79C62.479,14.425,66.008,18.214,70.462,20.207C72.963,21.326,75.683,21.917,78.428,21.813C78.917,21.794,79.333,21.41,79.333,20.908C79.333,20.432,78.919,19.983,78.428,20.002C74.085,20.166,69.764,18.476,66.622,15.477C63.307,12.313,61.635,7.851,61.832,3.271C61.941,0.729,62.662,-1.823,63.959,-4.05C64.547,-5.059,62.982,-5.971,62.395,-4.963C62.395,-4.963,62.395,-4.963,62.395,-4.963Z" /></g><g id="i8"><path fill="#1a1a1a" d="M22.335,-72.287C22.245,-71.623,20.779,-71.274,19.059,-71.507C17.339,-71.74,16.018,-72.468,16.108,-73.132C16.198,-73.796,17.818,-75.276,19.538,-75.043C21.258,-74.81,22.425,-72.951,22.335,-72.287Z" /></g><g id="i9"><path fill="#1a1a1a" d="M95.875,-98.153C96.574,-97.692,97.259,-97.208,97.925,-96.701C97.996,-96.647,98.222,-96.468,97.943,-96.688C98.008,-96.637,98.073,-96.587,98.137,-96.536C98.298,-96.408,98.459,-96.279,98.618,-96.149C98.97,-95.862,99.317,-95.568,99.659,-95.268C100.917,-94.165,102.105,-92.982,103.221,-91.735C103.788,-91.102,104.336,-90.452,104.866,-89.788C104.999,-89.621,105.132,-89.453,105.263,-89.284C105.054,-89.553,105.235,-89.319,105.287,-89.251C105.352,-89.166,105.417,-89.08,105.481,-88.994C105.752,-88.632,106.017,-88.266,106.278,-87.897C107.296,-86.455,108.235,-84.957,109.096,-83.416C109.961,-81.867,110.747,-80.274,111.454,-78.647C111.507,-78.524,111.561,-78.401,111.614,-78.278C111.591,-78.332,111.492,-78.569,111.609,-78.288C111.695,-78.081,111.78,-77.874,111.864,-77.666C112.04,-77.229,112.212,-76.789,112.377,-76.347C112.701,-75.481,113.004,-74.607,113.286,-73.726C113.839,-71.994,114.31,-70.236,114.696,-68.459C114.89,-67.566,115.062,-66.668,115.213,-65.767C115.289,-65.315,115.359,-64.862,115.424,-64.409C115.437,-64.318,115.449,-64.228,115.462,-64.137C115.407,-64.529,115.47,-64.072,115.477,-64.016C115.509,-63.766,115.539,-63.516,115.568,-63.265C115.988,-59.589,116.048,-55.87,115.715,-52.184C115.674,-51.726,115.626,-51.267,115.572,-50.81C115.545,-50.582,115.516,-50.355,115.487,-50.127C115.495,-50.187,115.533,-50.453,115.489,-50.143C115.466,-49.984,115.444,-49.826,115.42,-49.667C115.282,-48.741,115.12,-47.819,114.932,-46.902C114.569,-45.127,114.113,-43.372,113.569,-41.644C113.299,-40.787,113.007,-39.938,112.694,-39.096C112.538,-38.677,112.377,-38.26,112.21,-37.845C112.127,-37.638,112.042,-37.432,111.957,-37.226C111.932,-37.165,111.837,-36.944,111.963,-37.238C111.91,-37.115,111.858,-36.992,111.805,-36.87C111.084,-35.209,110.278,-33.584,109.389,-32.006C108.535,-30.49,107.604,-29.018,106.599,-27.597C106.35,-27.246,106.098,-26.897,105.84,-26.552C105.712,-26.38,105.582,-26.209,105.452,-26.039C105.486,-26.083,105.648,-26.291,105.465,-26.058C105.386,-25.957,105.307,-25.856,105.227,-25.755C104.685,-25.072,104.125,-24.404,103.547,-23.751C102.421,-22.481,101.227,-21.272,99.966,-20.136C99.353,-19.584,98.723,-19.048,98.079,-18.532C97.919,-18.404,97.758,-18.277,97.596,-18.151C97.916,-18.401,97.399,-18.004,97.334,-17.955C97.008,-17.711,96.678,-17.472,96.345,-17.238C94.995,-16.29,93.587,-15.425,92.125,-14.66C91.421,-14.292,90.706,-13.947,89.979,-13.627C89.907,-13.595,89.833,-13.564,89.761,-13.532C89.389,-13.367,90.082,-13.662,89.706,-13.508C89.523,-13.433,89.341,-13.359,89.158,-13.286C88.792,-13.141,88.423,-13.003,88.052,-12.871C87.312,-12.608,86.563,-12.374,85.807,-12.164C85.002,-11.941,84.426,-11.021,84.692,-10.199C84.958,-9.377,85.794,-8.844,86.657,-9.083C93.276,-10.918,99.221,-14.749,104.035,-19.603C109.239,-24.849,113.171,-31.276,115.751,-38.184C118.42,-45.331,119.511,-53.052,118.999,-60.66C118.482,-68.345,116.461,-75.904,113.029,-82.801C109.808,-89.275,105.264,-95.116,99.488,-99.497C98.837,-99.991,98.169,-100.462,97.487,-100.912C96.788,-101.373,95.69,-101.073,95.302,-100.339C94.879,-99.539,95.129,-98.645,95.875,-98.153C95.875,-98.153,95.875,-98.153,95.875,-98.153Z" /></g><g id="i4"><path fill="#1a1a1a" d="M77.316,0.582C81.643,4.782,88.027,6.433,93.891,5.216C96.795,4.613,99.479,3.217,101.692,1.251C103.907,-0.716,105.552,-3.246,106.627,-5.993C107.826,-9.058,108.128,-12.42,107.544,-15.654C107.395,-16.478,106.35,-17.019,105.58,-16.77C104.696,-16.484,104.304,-15.688,104.464,-14.805C104.492,-14.648,104.519,-14.491,104.543,-14.333C104.562,-14.204,104.544,-13.913,104.538,-14.379C104.539,-14.318,104.553,-14.249,104.56,-14.189C104.599,-13.841,104.626,-13.493,104.641,-13.143C104.668,-12.508,104.656,-11.871,104.606,-11.238C104.594,-11.08,104.578,-10.921,104.561,-10.763C104.552,-10.684,104.543,-10.606,104.534,-10.527C104.509,-10.3,104.597,-10.954,104.547,-10.62C104.498,-10.29,104.441,-9.961,104.374,-9.634C104.242,-8.995,104.074,-8.362,103.87,-7.742C103.77,-7.439,103.662,-7.14,103.546,-6.843C103.496,-6.716,103.245,-6.264,103.49,-6.693C103.404,-6.543,103.348,-6.37,103.275,-6.213C102.999,-5.62,102.689,-5.043,102.348,-4.485C102.182,-4.213,102.009,-3.946,101.828,-3.684C101.747,-3.566,101.663,-3.449,101.579,-3.333C101.532,-3.269,101.485,-3.204,101.437,-3.14C101.399,-3.089,101.361,-3.039,101.322,-2.988C101.366,-3.045,101.411,-3.104,101.455,-3.161C101.228,-2.956,101.048,-2.658,100.845,-2.427C100.614,-2.165,100.374,-1.909,100.127,-1.662C99.675,-1.21,99.187,-0.81,98.702,-0.397C99.087,-0.725,98.656,-0.366,98.569,-0.302C98.44,-0.208,98.31,-0.116,98.179,-0.027C97.903,0.161,97.62,0.341,97.332,0.51C97.07,0.664,96.802,0.81,96.531,0.948C96.387,1.021,96.241,1.093,96.095,1.161C96.007,1.202,95.92,1.242,95.831,1.281C95.729,1.326,95.426,1.434,95.857,1.273C95.251,1.499,94.653,1.727,94.028,1.898C93.374,2.077,92.712,2.209,92.042,2.311C91.928,2.328,91.773,2.303,92.178,2.293C92.083,2.295,91.984,2.316,91.89,2.326C91.746,2.342,91.601,2.356,91.456,2.368C91.118,2.396,90.78,2.413,90.441,2.421C89.762,2.436,89.083,2.411,88.407,2.347C88.262,2.333,88.118,2.317,87.973,2.3C87.859,2.286,87.609,2.238,88.061,2.313C87.997,2.302,87.933,2.295,87.869,2.285C87.517,2.232,87.167,2.168,86.819,2.093C86.092,1.937,85.375,1.735,84.675,1.486C84.492,1.421,84.311,1.353,84.131,1.282C84.071,1.258,84.011,1.234,83.951,1.21C83.644,1.087,84.256,1.346,83.976,1.221C83.622,1.063,83.272,0.901,82.928,0.722C82.271,0.38,81.637,-0.008,81.034,-0.438C80.907,-0.529,80.783,-0.653,80.645,-0.725C81.003,-0.539,80.771,-0.626,80.663,-0.713C80.588,-0.774,80.512,-0.835,80.438,-0.897C80.14,-1.146,79.853,-1.407,79.575,-1.677C78.975,-2.26,77.905,-2.319,77.316,-1.677C76.738,-1.047,76.675,-0.04,77.316,0.582C77.316,0.582,77.316,0.582,77.316,0.582Z" /></g><g id="i10"><path fill="#1a1a1a" d="M-74.167,-93.557C-78.985,-90.373,-83,-86.066,-85.93,-81.095C-88.853,-76.136,-90.666,-70.575,-91.255,-64.852C-91.827,-59.294,-91.083,-53.599,-89.085,-48.38C-87.071,-43.118,-83.946,-38.317,-79.947,-34.346C-75.964,-30.392,-71.155,-27.299,-65.872,-25.396C-65.237,-25.167,-64.595,-24.958,-63.947,-24.767C-63.146,-24.53,-62.171,-25.053,-61.982,-25.883C-61.787,-26.74,-62.239,-27.594,-63.097,-27.848C-63.745,-28.039,-64.388,-28.248,-65.023,-28.477C-65.325,-28.586,-65.626,-28.699,-65.925,-28.816C-66.074,-28.875,-66.223,-28.934,-66.372,-28.995C-66.431,-29.019,-66.491,-29.044,-66.55,-29.068C-66.845,-29.188,-66.2,-28.918,-66.567,-29.076C-67.79,-29.601,-68.984,-30.197,-70.141,-30.856C-71.284,-31.508,-72.392,-32.221,-73.459,-32.991C-73.719,-33.179,-73.977,-33.37,-74.233,-33.565C-74.283,-33.603,-74.334,-33.646,-74.386,-33.682C-74.006,-33.421,-74.287,-33.606,-74.367,-33.669C-74.519,-33.788,-74.669,-33.908,-74.819,-34.029C-75.318,-34.434,-75.808,-34.852,-76.286,-35.281C-77.279,-36.172,-78.225,-37.116,-79.12,-38.106C-79.562,-38.595,-79.992,-39.095,-80.409,-39.606C-80.612,-39.855,-80.805,-40.114,-81.01,-40.361C-80.693,-39.98,-81.042,-40.405,-81.111,-40.498C-81.227,-40.652,-81.341,-40.808,-81.455,-40.964C-83.005,-43.094,-84.337,-45.382,-85.411,-47.788C-85.476,-47.935,-85.541,-48.082,-85.604,-48.229C-85.62,-48.267,-85.749,-48.564,-85.637,-48.304C-85.525,-48.044,-85.651,-48.342,-85.667,-48.38C-85.801,-48.706,-85.931,-49.034,-86.056,-49.364C-86.283,-49.964,-86.494,-50.571,-86.688,-51.182C-87.092,-52.452,-87.424,-53.744,-87.679,-55.052C-87.741,-55.368,-87.798,-55.685,-87.85,-56.002C-87.874,-56.145,-87.896,-56.288,-87.918,-56.431C-87.938,-56.564,-88.002,-57.224,-87.958,-56.689C-88.015,-57.377,-88.117,-58.061,-88.165,-58.751C-88.259,-60.095,-88.274,-61.444,-88.213,-62.789C-88.183,-63.462,-88.133,-64.133,-88.065,-64.803C-88.032,-65.13,-87.994,-65.456,-87.952,-65.782C-87.938,-65.893,-87.894,-66.15,-87.964,-65.699C-87.954,-65.764,-87.945,-65.829,-87.936,-65.894C-87.908,-66.089,-87.878,-66.284,-87.847,-66.479C-87.634,-67.81,-87.349,-69.129,-86.994,-70.43C-86.63,-71.764,-86.195,-73.078,-85.69,-74.365C-85.636,-74.503,-85.581,-74.64,-85.525,-74.777C-85.494,-74.853,-85.462,-74.93,-85.431,-75.006C-85.416,-75.042,-85.289,-75.348,-85.397,-75.089C-85.505,-74.83,-85.377,-75.134,-85.362,-75.17C-85.329,-75.246,-85.296,-75.322,-85.263,-75.397C-85.19,-75.563,-85.116,-75.728,-85.041,-75.893C-84.754,-76.522,-84.451,-77.143,-84.131,-77.756C-83.506,-78.952,-82.818,-80.115,-82.071,-81.239C-81.689,-81.814,-81.291,-82.379,-80.878,-82.932C-80.782,-83.061,-80.66,-83.186,-80.58,-83.325C-80.595,-83.299,-80.815,-83.024,-80.648,-83.236C-80.597,-83.301,-80.547,-83.365,-80.496,-83.429C-80.282,-83.7,-80.065,-83.967,-79.843,-84.232C-78.968,-85.277,-78.034,-86.273,-77.047,-87.213C-76.559,-87.677,-76.058,-88.128,-75.545,-88.564C-75.294,-88.777,-75.041,-88.986,-74.785,-89.191C-74.66,-89.291,-74.511,-89.384,-74.398,-89.496C-74.68,-89.218,-74.543,-89.384,-74.447,-89.457C-74.355,-89.527,-74.263,-89.596,-74.171,-89.665C-73.643,-90.059,-73.104,-90.436,-72.555,-90.799C-71.859,-91.259,-71.497,-92.231,-71.982,-92.984C-72.43,-93.678,-73.421,-94.05,-74.167,-93.557C-74.167,-93.557,-74.167,-93.557,-74.167,-93.557Z" /></g><g id="i11"><path fill="#1a1a1a" d="M-73.787,-7.301C-70.079,-2.863,-65.143,0.493,-59.652,2.307C-54.388,4.046,-48.617,4.278,-43.243,2.901C-40.202,2.122,-37.276,0.814,-34.667,-0.932C-33.974,-1.396,-33.607,-2.362,-34.094,-3.118C-34.54,-3.809,-35.536,-4.188,-36.279,-3.691C-37.401,-2.94,-38.577,-2.271,-39.799,-1.697C-40.079,-1.566,-40.369,-1.453,-40.646,-1.317C-40.185,-1.544,-40.655,-1.315,-40.777,-1.266C-40.948,-1.197,-41.12,-1.129,-41.293,-1.064C-41.923,-0.826,-42.563,-0.611,-43.21,-0.422C-44.438,-0.062,-45.688,0.198,-46.953,0.388C-47.29,0.439,-46.551,0.338,-46.889,0.38C-46.964,0.389,-47.04,0.399,-47.115,0.408C-47.28,0.428,-47.446,0.446,-47.612,0.463C-47.944,0.497,-48.275,0.525,-48.608,0.546C-49.243,0.587,-49.879,0.606,-50.515,0.603C-51.167,0.6,-51.819,0.573,-52.469,0.524C-52.787,0.5,-53.104,0.471,-53.421,0.436C-53.572,0.419,-53.723,0.401,-53.874,0.383C-54.141,0.351,-53.738,0.401,-53.72,0.404C-53.84,0.385,-53.961,0.37,-54.081,0.352C-55.364,0.16,-56.635,-0.121,-57.88,-0.486C-58.514,-0.672,-59.142,-0.88,-59.762,-1.109C-60.051,-1.216,-60.339,-1.328,-60.625,-1.444C-60.71,-1.479,-60.795,-1.519,-60.882,-1.55C-60.86,-1.542,-60.514,-1.392,-60.757,-1.498C-60.927,-1.572,-61.098,-1.646,-61.267,-1.723C-62.492,-2.276,-63.678,-2.914,-64.815,-3.631C-65.458,-4.036,-66.085,-4.467,-66.695,-4.921C-66.805,-5.003,-67.295,-5.395,-66.905,-5.077C-67.054,-5.198,-67.206,-5.315,-67.355,-5.436C-67.655,-5.679,-67.95,-5.928,-68.24,-6.183C-69.422,-7.221,-70.519,-8.353,-71.528,-9.56C-72.066,-10.204,-73.239,-10.157,-73.787,-9.56C-74.415,-8.875,-74.361,-7.988,-73.787,-7.301C-73.787,-7.301,-73.787,-7.301,-73.787,-7.301Z" /></g><g id="i12"><g id="i5"><g id="i12"><path fill="#1a1a1a" d="M-11.916,-118.24C-7.2,-120.94,-2.986,-124.502,0.55,-128.624C4.06,-132.715,6.918,-137.415,8.914,-142.424C10.062,-145.305,10.935,-148.309,11.505,-151.358C11.659,-152.18,10.997,-153.087,10.16,-153.173C9.272,-153.265,8.51,-152.709,8.345,-151.828C8.101,-150.526,7.803,-149.234,7.446,-147.958C7.427,-147.891,7.408,-147.824,7.389,-147.757C7.312,-147.483,7.407,-147.839,7.421,-147.867C7.349,-147.721,7.319,-147.522,7.272,-147.366C7.176,-147.049,7.076,-146.734,6.973,-146.419C6.772,-145.806,6.558,-145.199,6.332,-144.595C5.414,-142.147,4.289,-139.777,2.98,-137.514C2.893,-137.363,2.805,-137.213,2.716,-137.063C2.656,-136.962,2.594,-136.774,2.501,-136.704C2.537,-136.762,2.571,-136.821,2.607,-136.879C2.58,-136.834,2.552,-136.79,2.525,-136.745C2.479,-136.671,2.434,-136.597,2.388,-136.523C2.296,-136.375,2.203,-136.227,2.109,-136.08C1.753,-135.521,1.384,-134.97,1.005,-134.427C0.257,-133.354,-0.535,-132.312,-1.368,-131.304C-2.201,-130.296,-3.075,-129.322,-3.988,-128.386C-4.207,-128.161,-4.428,-127.939,-4.651,-127.719C-4.763,-127.609,-4.876,-127.5,-4.988,-127.39C-5.154,-127.228,-4.699,-127.663,-4.957,-127.42C-5.033,-127.348,-5.109,-127.276,-5.185,-127.204C-5.655,-126.763,-6.134,-126.331,-6.622,-125.909C-8.851,-123.982,-11.261,-122.271,-13.818,-120.807C-14.149,-120.618,-14.394,-120.117,-14.447,-119.759C-14.505,-119.372,-14.401,-118.883,-14.15,-118.573C-13.89,-118.252,-13.526,-117.988,-13.102,-117.944C-12.653,-117.898,-12.304,-118.018,-11.916,-118.24C-11.916,-118.24,-11.916,-118.24,-11.916,-118.24Z" /></g><g id="i5"><path fill="#1a1a1a" d="M3.002,-114.362C9.29,-116.177,15.174,-119.439,20.147,-123.684C25.197,-127.995,29.375,-133.287,32.334,-139.236C34.001,-142.588,35.243,-146.15,36.047,-149.806C36.227,-150.624,35.52,-151.537,34.702,-151.621C33.791,-151.715,33.08,-151.152,32.887,-150.276C32.711,-149.476,32.513,-148.68,32.292,-147.891C32.265,-147.796,32.237,-147.702,32.212,-147.607C32.219,-147.633,32.328,-148.001,32.248,-147.736C32.191,-147.548,32.136,-147.36,32.078,-147.172C31.952,-146.766,31.82,-146.361,31.682,-145.958C31.173,-144.472,30.585,-143.014,29.922,-141.59C29.252,-140.151,28.507,-138.747,27.692,-137.385C27.65,-137.315,27.603,-137.246,27.566,-137.174C27.779,-137.585,27.631,-137.282,27.576,-137.193C27.473,-137.026,27.369,-136.859,27.264,-136.693C27.036,-136.333,26.803,-135.977,26.565,-135.624C26.126,-134.972,25.67,-134.33,25.199,-133.7C24.257,-132.44,23.252,-131.227,22.19,-130.066C21.659,-129.485,21.114,-128.918,20.555,-128.364C20.418,-128.228,20.257,-128.099,20.133,-127.951C20.416,-128.288,20.224,-128.038,20.144,-127.962C20.073,-127.894,20.001,-127.826,19.929,-127.759C19.618,-127.467,19.304,-127.18,18.986,-126.897C16.638,-124.807,14.081,-122.947,11.362,-121.369C11.277,-121.32,11.192,-121.271,11.107,-121.222C11.016,-121.17,10.601,-120.967,11.036,-121.181C10.831,-121.08,10.635,-120.959,10.434,-120.851C10.059,-120.649,9.682,-120.453,9.302,-120.262C8.512,-119.866,7.711,-119.492,6.899,-119.144C5.243,-118.433,3.544,-117.827,1.813,-117.327C1.008,-117.095,0.594,-115.982,0.925,-115.25C1.311,-114.397,2.14,-114.113,3.002,-114.362C3.002,-114.362,3.002,-114.362,3.002,-114.362Z" /></g><g id="i1"><path fill="#1a1a1a" d="M25.916,-112.234C32.174,-114.008,38.026,-117.252,42.952,-121.488C47.955,-125.79,52.079,-131.079,54.955,-137.023C56.568,-140.358,57.76,-143.903,58.502,-147.532C58.67,-148.352,57.984,-149.262,57.157,-149.347C56.257,-149.44,55.522,-148.88,55.342,-148.002C55.181,-147.216,54.999,-146.435,54.794,-145.659C54.748,-145.485,54.701,-145.311,54.653,-145.138C54.627,-145.044,54.596,-144.95,54.573,-144.855C54.689,-145.334,54.612,-144.993,54.582,-144.89C54.466,-144.498,54.344,-144.108,54.217,-143.72C53.723,-142.214,53.146,-140.736,52.491,-139.293C51.842,-137.864,51.118,-136.471,50.323,-135.118C50.24,-134.977,50.156,-134.836,50.072,-134.696C49.891,-134.391,50.27,-135.016,50.084,-134.714C50.032,-134.631,49.981,-134.547,49.929,-134.464C49.704,-134.103,49.474,-133.745,49.239,-133.39C48.806,-132.735,48.355,-132.092,47.889,-131.46C46.956,-130.195,45.959,-128.977,44.903,-127.813C44.375,-127.231,43.833,-126.662,43.276,-126.107C43.148,-125.98,43.021,-125.854,42.892,-125.728C42.834,-125.671,42.77,-125.617,42.715,-125.557C43.023,-125.892,42.799,-125.638,42.726,-125.569C42.417,-125.276,42.104,-124.987,41.787,-124.703C39.45,-122.606,36.901,-120.744,34.184,-119.17C34.099,-119.121,34.014,-119.073,33.929,-119.024C33.841,-118.974,33.427,-118.752,33.858,-118.983C33.685,-118.89,33.515,-118.793,33.342,-118.7C32.939,-118.483,32.534,-118.272,32.125,-118.068C31.336,-117.674,30.534,-117.304,29.722,-116.959C28.096,-116.268,26.427,-115.681,24.727,-115.199C23.92,-114.97,23.509,-113.851,23.839,-113.122C24.226,-112.266,25.053,-111.989,25.916,-112.234C25.916,-112.234,25.916,-112.234,25.916,-112.234Z" /></g><g id="i2"><path fill="#1a1a1a" d="M64.12,-145.613C64.059,-143.994,63.888,-142.379,63.604,-140.784C63.459,-139.968,63.284,-139.158,63.082,-138.354C62.99,-137.989,62.878,-137.628,62.788,-137.262C62.902,-137.726,62.751,-137.143,62.715,-137.024C62.649,-136.808,62.58,-136.592,62.51,-136.377C62.007,-134.837,61.399,-133.33,60.693,-131.872C60.332,-131.126,59.945,-130.392,59.533,-129.673C59.439,-129.51,59.344,-129.347,59.248,-129.185C59.206,-129.115,59.011,-128.774,59.23,-129.151C59.192,-129.086,59.152,-129.023,59.112,-128.959C58.894,-128.607,58.669,-128.258,58.438,-127.914C57.41,-126.379,56.262,-124.93,55.006,-123.576C54.436,-122.962,54.59,-121.816,55.251,-121.33C55.99,-120.787,56.889,-120.92,57.497,-121.575C62.139,-126.577,65.292,-132.91,66.627,-139.593C66.993,-141.422,67.21,-143.279,67.28,-145.143C67.297,-145.582,67.255,-145.963,66.984,-146.329C66.751,-146.644,66.331,-146.917,65.935,-146.958C65.152,-147.039,64.154,-146.507,64.12,-145.613C64.12,-145.613,64.12,-145.613,64.12,-145.613Z" /></g></g><g id="i1"><path fill="#1a1a1a" d="M29.875,-192.951C24.819,-194.693,19.578,-195.816,14.264,-196.401C9.025,-196.978,3.725,-196.983,-1.517,-196.445C-6.839,-195.899,-12.103,-194.841,-17.206,-193.231C-22.314,-191.619,-27.274,-189.482,-31.937,-186.845C-36.575,-184.222,-40.937,-181.084,-44.887,-177.507C-48.825,-173.941,-52.323,-169.904,-55.37,-165.555C-58.405,-161.222,-60.947,-156.56,-63.003,-151.688C-65.053,-146.829,-66.628,-141.783,-67.658,-136.609C-68.7,-131.376,-69.228,-126.028,-69.174,-120.691C-69.12,-115.386,-68.498,-110.07,-67.298,-104.902C-67.008,-103.653,-66.682,-102.412,-66.323,-101.181C-66.089,-100.379,-65.187,-99.797,-64.358,-100.065C-63.544,-100.328,-62.992,-101.171,-63.243,-102.03C-63.967,-104.514,-64.552,-107.037,-64.994,-109.586C-65.103,-110.217,-65.204,-110.849,-65.296,-111.482C-65.316,-111.623,-65.336,-111.763,-65.356,-111.904C-65.4,-112.218,-65.365,-111.965,-65.357,-111.902C-65.366,-111.972,-65.375,-112.043,-65.384,-112.114C-65.427,-112.443,-65.468,-112.772,-65.506,-113.102C-65.653,-114.373,-65.765,-115.648,-65.844,-116.925C-66.003,-119.504,-66.025,-122.092,-65.912,-124.674C-65.856,-125.954,-65.768,-127.232,-65.647,-128.507C-65.584,-129.168,-65.512,-129.829,-65.432,-130.489C-65.398,-130.772,-65.361,-131.055,-65.324,-131.337C-65.37,-130.994,-65.306,-131.465,-65.294,-131.547C-65.267,-131.735,-65.24,-131.923,-65.212,-132.111C-64.451,-137.208,-63.175,-142.228,-61.41,-147.07C-61.19,-147.672,-60.964,-148.271,-60.729,-148.868C-60.616,-149.155,-60.501,-149.442,-60.385,-149.728C-60.322,-149.882,-60.259,-150.036,-60.195,-150.189C-60.16,-150.274,-59.993,-150.666,-60.108,-150.398C-59.593,-151.598,-59.056,-152.786,-58.484,-153.96C-57.362,-156.262,-56.122,-158.507,-54.768,-160.681C-54.079,-161.787,-53.36,-162.875,-52.612,-163.943C-52.245,-164.467,-51.871,-164.986,-51.49,-165.5C-51.307,-165.747,-51.122,-165.994,-50.935,-166.239C-50.88,-166.312,-50.676,-166.577,-50.838,-166.367C-50.722,-166.517,-50.605,-166.666,-50.488,-166.815C-48.904,-168.828,-47.209,-170.754,-45.412,-172.579C-43.589,-174.43,-41.658,-176.174,-39.635,-177.805C-39.394,-178,-39.152,-178.193,-38.908,-178.384C-38.852,-178.428,-38.795,-178.472,-38.739,-178.516C-38.706,-178.542,-38.469,-178.724,-38.618,-178.61C-38.754,-178.505,-38.565,-178.649,-38.552,-178.659C-38.476,-178.717,-38.401,-178.775,-38.325,-178.833C-37.812,-179.222,-37.294,-179.603,-36.771,-179.977C-35.705,-180.74,-34.618,-181.473,-33.512,-182.175C-31.339,-183.555,-29.093,-184.818,-26.787,-185.961C-25.612,-186.543,-24.421,-187.095,-23.217,-187.615C-23.086,-187.672,-22.954,-187.728,-22.823,-187.784C-22.654,-187.857,-22.851,-187.772,-22.875,-187.762C-22.787,-187.799,-22.699,-187.835,-22.611,-187.872C-22.302,-188,-21.992,-188.126,-21.682,-188.25C-21.084,-188.489,-20.483,-188.72,-19.879,-188.944C-15.02,-190.742,-9.978,-192.043,-4.857,-192.827C-4.55,-192.874,-4.242,-192.919,-3.935,-192.962C-3.834,-192.976,-3.411,-193.032,-3.721,-192.992C-3.532,-193.016,-3.343,-193.041,-3.153,-193.065C-2.513,-193.145,-1.873,-193.217,-1.232,-193.28C0.05,-193.407,1.336,-193.501,2.623,-193.562C5.219,-193.686,7.822,-193.675,10.417,-193.527C11.702,-193.454,12.985,-193.348,14.264,-193.207C14.572,-193.173,14.88,-193.137,15.187,-193.099C15.329,-193.082,15.471,-193.063,15.613,-193.045C15.66,-193.039,15.959,-193,15.755,-193.027C15.566,-193.052,15.864,-193.012,15.896,-193.007C16.533,-192.918,17.17,-192.821,17.804,-192.715C20.367,-192.288,22.906,-191.719,25.405,-191.009C26.622,-190.663,27.829,-190.282,29.025,-189.87C29.816,-189.598,30.807,-190.181,30.99,-190.986C31.192,-191.875,30.722,-192.659,29.875,-192.951C29.875,-192.951,29.875,-192.951,29.875,-192.951Z" /></g><g id="i2"><path fill="#1a1a1a" d="M41.195,-187.437C43.242,-187.622,45.298,-187.682,47.352,-187.611C48.355,-187.577,49.356,-187.512,50.355,-187.418C50.832,-187.373,51.309,-187.321,51.784,-187.263C51.897,-187.249,52.01,-187.234,52.123,-187.22C52.579,-187.163,51.787,-187.269,52.242,-187.204C52.513,-187.165,52.783,-187.126,53.054,-187.084C57.067,-186.457,61.004,-185.359,64.775,-183.854C65.011,-183.76,65.246,-183.664,65.481,-183.567C65.473,-183.57,65.891,-183.394,65.673,-183.487C65.455,-183.58,65.873,-183.401,65.865,-183.404C66.375,-183.184,66.882,-182.956,67.385,-182.721C68.31,-182.289,69.223,-181.832,70.124,-181.351C71.935,-180.385,73.694,-179.322,75.394,-178.171C76.248,-177.592,77.088,-176.991,77.911,-176.369C78.023,-176.284,78.135,-176.199,78.247,-176.113C77.97,-176.325,78.341,-176.04,78.37,-176.017C78.555,-175.872,78.739,-175.725,78.923,-175.578C79.327,-175.254,79.728,-174.924,80.124,-174.589C81.751,-173.213,83.304,-171.749,84.773,-170.206C85.496,-169.447,86.198,-168.669,86.88,-167.873C87.206,-167.492,87.527,-167.106,87.844,-166.717C88.01,-166.513,88.175,-166.307,88.338,-166.101C88.412,-166.007,88.486,-165.912,88.56,-165.818C88.604,-165.761,88.649,-165.705,88.693,-165.648C88.59,-165.782,88.594,-165.775,88.706,-165.629C89.985,-163.935,91.187,-162.189,92.285,-160.372C93.431,-158.475,94.466,-156.511,95.39,-154.496C95.597,-154.044,95.797,-153.589,95.995,-153.133C96.191,-152.681,95.878,-153.42,96.067,-152.965C96.115,-152.85,96.163,-152.735,96.21,-152.62C96.333,-152.321,96.453,-152.02,96.571,-151.719C96.972,-150.697,97.346,-149.665,97.693,-148.624C98.39,-146.533,98.979,-144.407,99.462,-142.257C99.704,-141.178,99.921,-140.093,100.11,-139.003C100.205,-138.457,100.293,-137.91,100.375,-137.362C100.412,-137.113,100.447,-136.863,100.482,-136.614C100.551,-136.119,100.444,-136.935,100.505,-136.439C100.527,-136.264,100.549,-136.089,100.57,-135.914C101.107,-131.477,101.219,-126.988,100.906,-122.53C100.828,-121.422,100.724,-120.317,100.594,-119.214C100.562,-118.938,100.525,-118.663,100.492,-118.388C100.457,-118.097,100.545,-118.769,100.478,-118.288C100.457,-118.138,100.437,-117.989,100.415,-117.839C100.336,-117.291,100.249,-116.743,100.157,-116.197C99.78,-113.968,99.294,-111.756,98.696,-109.576C98.114,-107.456,97.427,-105.365,96.633,-103.315C96.435,-102.804,96.231,-102.297,96.02,-101.791C96.046,-101.853,96.131,-102.05,96.007,-101.76C95.948,-101.623,95.889,-101.486,95.83,-101.349C95.711,-101.076,95.59,-100.803,95.467,-100.531C95.017,-99.537,94.541,-98.555,94.038,-97.587C93.536,-96.621,93.007,-95.67,92.453,-94.733C92.028,-94.013,92.266,-92.95,93.026,-92.548C93.795,-92.142,94.757,-92.352,95.211,-93.121C99.918,-101.086,102.708,-110.048,103.789,-119.214C104.86,-128.3,104.166,-137.647,101.697,-146.461C99.259,-155.162,95.018,-163.263,89.139,-170.132C83.562,-176.649,76.536,-182.002,68.745,-185.596C61.081,-189.131,52.664,-191.063,44.205,-190.814C43.2,-190.784,42.196,-190.722,41.195,-190.631C40.365,-190.556,39.557,-189.95,39.598,-189.034C39.634,-188.233,40.304,-187.356,41.195,-187.437C41.195,-187.437,41.195,-187.437,41.195,-187.437Z" /></g></g><g id="i5"><path fill="#1a1a1a" d="M-83.427,-24.598C-91.133,-20.703,-98.283,-15.724,-104.668,-9.914C-111.028,-4.126,-116.622,2.526,-121.255,9.771C-126.064,17.292,-129.816,25.503,-132.324,34.071C-135.102,43.562,-136.389,53.517,-136.175,63.402C-135.961,73.288,-134.265,83.178,-131.06,92.536C-130.673,93.665,-130.262,94.785,-129.833,95.899C-129.523,96.703,-128.76,97.26,-127.869,97.015C-127.1,96.804,-126.441,95.859,-126.753,95.05C-130.217,86.066,-132.273,76.573,-132.837,66.979C-133.402,57.361,-132.531,47.71,-130.182,38.374C-128.006,29.725,-124.681,21.691,-120.132,14.036C-115.838,6.809,-110.724,0.349,-104.681,-5.519C-98.639,-11.386,-91.991,-16.326,-84.575,-20.388C-83.663,-20.887,-82.743,-21.37,-81.815,-21.839C-81.045,-22.228,-80.825,-23.313,-81.242,-24.025C-81.7,-24.808,-82.654,-24.988,-83.427,-24.598C-83.427,-24.598,-83.427,-24.598,-83.427,-24.598Z" /></g><g id="i1"><path fill="#1a1a1a" d="M-76.271,-17.539C-80.109,-16.253,-83.825,-14.576,-87.326,-12.543C-90.826,-10.511,-94.122,-8.118,-97.167,-5.454C-100.139,-2.854,-102.862,0.03,-105.29,3.145C-107.783,6.343,-109.997,9.742,-111.835,13.358C-113.668,16.965,-115.164,20.758,-116.236,24.66C-116.366,25.132,-116.489,25.607,-116.607,26.082C-116.808,26.892,-116.347,27.852,-115.491,28.047C-114.665,28.235,-113.741,27.799,-113.526,26.931C-113.055,25.031,-112.488,23.156,-111.825,21.314C-111.499,20.409,-111.151,19.513,-110.781,18.626C-110.629,18.263,-110.882,18.862,-110.771,18.602C-110.72,18.482,-110.669,18.363,-110.617,18.243C-110.52,18.019,-110.421,17.795,-110.321,17.572C-110.121,17.126,-109.915,16.683,-109.704,16.242C-108.021,12.727,-105.993,9.379,-103.671,6.25C-103.535,6.067,-103.397,5.884,-103.259,5.702C-103.19,5.611,-103.12,5.52,-103.051,5.429C-102.925,5.264,-103.25,5.684,-103.122,5.52C-103.072,5.456,-103.021,5.391,-102.971,5.327C-102.669,4.941,-102.364,4.559,-102.053,4.181C-101.442,3.437,-100.815,2.706,-100.17,1.991C-98.859,0.536,-97.479,-0.857,-96.037,-2.182C-95.328,-2.833,-94.604,-3.467,-93.866,-4.085C-93.491,-4.399,-93.112,-4.709,-92.729,-5.014C-92.55,-5.156,-92.371,-5.298,-92.191,-5.438C-92.14,-5.478,-92.087,-5.517,-92.037,-5.558C-92.06,-5.539,-92.341,-5.325,-92.128,-5.487C-92.024,-5.566,-91.92,-5.645,-91.816,-5.724C-90.256,-6.904,-88.639,-8.009,-86.972,-9.033C-85.32,-10.048,-83.618,-10.982,-81.874,-11.829C-80.994,-12.256,-80.103,-12.658,-79.204,-13.043C-79.041,-13.113,-79.371,-12.973,-79.36,-12.977C-79.299,-13.001,-79.24,-13.027,-79.18,-13.052C-79.075,-13.096,-78.969,-13.14,-78.863,-13.183C-78.637,-13.275,-78.41,-13.367,-78.182,-13.456C-77.727,-13.635,-77.269,-13.808,-76.809,-13.975C-76.349,-14.142,-75.886,-14.302,-75.422,-14.458C-74.631,-14.723,-74.03,-15.571,-74.306,-16.423C-74.561,-17.21,-75.423,-17.823,-76.271,-17.539C-76.271,-17.539,-76.271,-17.539,-76.271,-17.539Z" /></g><g id="i2"><g id="i1"><path d="M37.248,-56.152C35.025,-53.473,32.222,-51.281,29.044,-49.854C21.75,-46.58,12.751,-47.466,6.236,-52.1C0.259,-56.351,-3.424,-63.612,-3.451,-70.932C11.566,-68.295,26.702,-66.336,41.895,-65.063C41.017,-61.808,39.405,-58.751,37.248,-56.152Z" /></g><g id="i2"><path fill="#1a1a1a" d="M-3.451,-70.932C11.566,-68.295,26.702,-66.336,41.895,-65.063C41.017,-61.808,39.405,-58.751,37.248,-56.152C35.025,-53.473,32.222,-51.281,29.044,-49.854C26.695,-48.8,24.17,-48.176,21.607,-47.971C16.212,-47.539,10.653,-48.958,6.236,-52.1C0.259,-56.351,-3.424,-63.612,-3.451,-70.932M-3.592,-72.695C-3.956,-72.666,-4.305,-72.524,-4.59,-72.284C-4.99,-71.947,-5.221,-71.45,-5.219,-70.926C-5.19,-62.98,-1.193,-55.214,5.211,-50.659C9.917,-47.312,15.79,-45.732,21.748,-46.209C24.569,-46.435,27.268,-47.119,29.768,-48.241C33.116,-49.744,36.174,-52.089,38.609,-55.023C40.944,-57.836,42.67,-61.149,43.602,-64.602C43.739,-65.108,43.643,-65.649,43.342,-66.078C43.041,-66.507,42.565,-66.781,42.043,-66.825C26.96,-68.089,11.756,-70.057,-3.145,-72.674C-3.294,-72.7,-3.444,-72.707,-3.592,-72.695C-3.592,-72.695,-3.592,-72.695,-3.592,-72.695Z" /></g></g></g><g id="i1"><path fill="#1a1a1a" d="M50.17,-99.387C54.697,-100.984,59.612,-98.541,61.679,-93.739C61.972,-93.059,62.606,-92.669,63.26,-93.004C63.833,-93.297,64.249,-94.22,63.955,-94.904C62.709,-97.8,60.727,-100.124,58.212,-101.483C55.443,-102.978,52.263,-103.073,49.284,-102.022C48.645,-101.796,48.371,-100.771,48.589,-100.122C48.852,-99.34,49.528,-99.161,50.17,-99.387C50.17,-99.387,50.17,-99.387,50.17,-99.387Z" /></g><g id="i2"><path fill="#1a1a1a" d="M-5.228,-105.534C-9.173,-108.269,-14.558,-107.21,-17.819,-103.124C-18.281,-102.546,-18.996,-102.337,-19.538,-102.832C-20.013,-103.266,-20.173,-104.267,-19.708,-104.849C-17.741,-107.314,-15.217,-109.032,-12.432,-109.678C-9.367,-110.39,-6.274,-109.642,-3.678,-107.842C-3.121,-107.456,-3.127,-106.394,-3.509,-105.825C-3.969,-105.14,-4.669,-105.146,-5.228,-105.534C-5.228,-105.534,-5.228,-105.534,-5.228,-105.534Z" /></g></g><g id="i10"><path fill="#6295c7" d="M46.452,10.866C46.287,4.71,45.181,-1.059,41.5,-3.861C38.966,-5.79,35.706,-5.821,32.583,-5.808C13.218,-5.729,-6.146,-5.649,-25.511,-5.57C-26.895,-5.564,-28.412,-5.501,-29.612,-4.31C-31.062,-2.871,-31.504,-0.349,-31.731,1.878C-32.396,8.413,-32.645,34.948,-28.341,38.878C-24.033,42.812,-14.621,44.586,-9.198,45.701C4.412,48.5,18.906,47.483,33.124,42.73C35.741,41.855,38.453,40.785,40.645,38.441C45.073,33.706,45.886,25.674,46.279,18.71C46.423,16.156,46.522,13.477,46.452,10.866Z" /></g><g id="i11"><path d="M194.767,-24.554C180.185,-26.226,162.649,-24.946,148.067,-26.618C145.705,-2.171,144.826,38.066,138.575,44.317C132.324,50.568,108.19,42.098,95.221,38.982C70.602,28.628,61.038,26.203,36.419,15.849C36.419,15.849,-24.483,14.846,-24.483,14.846C-48.856,24.219,-73.228,33.592,-97.601,42.965C-97.601,42.965,-91.994,174.893,-91.994,174.893C-91.994,174.893,83.531,174.893,83.531,174.893C83.531,165.712,83.821,156.788,84.626,149.29C86.813,128.931,89.51,117.974,98.513,108.971C107.516,99.968,154.052,123.091,172.133,113.014C183.083,106.911,184.356,97.111,188.684,87.759C192.797,78.872,196.396,8.204,194.767,-24.554Z" fill="#6295c7"><animate repeatCount="indefinite" attributeName="d" dur="1.292s" begin="0s" calcMode="spline" values="M194.767,-24.554C180.185,-26.226,162.649,-24.946,148.067,-26.618C145.705,-2.171,144.826,38.066,138.575,44.317C132.324,50.568,108.19,42.098,95.221,38.982C70.602,28.628,61.038,26.203,36.419,15.849C36.419,15.849,-24.483,14.846,-24.483,14.846C-48.856,24.219,-73.228,33.592,-97.601,42.965C-97.601,42.965,-91.994,174.893,-91.994,174.893C-91.994,174.893,83.531,174.893,83.531,174.893C83.531,165.712,83.821,156.788,84.626,149.29C86.813,128.931,89.51,117.974,98.513,108.971C107.516,99.968,154.052,123.091,172.133,113.014C183.083,106.911,184.356,97.111,188.684,87.759C192.797,78.872,196.396,8.204,194.767,-24.554Z; M202.267,-26.554C187.5,-26.25,172.649,-28.065,158.067,-29.737C155.705,-5.29,143.576,40.066,137.325,46.317C131.074,52.568,108.19,42.098,95.221,38.982C70.602,28.628,61.038,26.203,36.419,15.849C36.419,15.849,-24.483,14.846,-24.483,14.846C-48.856,24.219,-73.228,33.592,-97.601,42.965C-97.601,42.965,-91.994,174.893,-91.994,174.893C-91.994,174.893,83.531,174.893,83.531,174.893C83.531,165.712,83.821,156.788,84.626,149.29C86.813,128.931,89.509,117.974,98.513,108.971C107.516,99.968,149.802,126.841,167.883,116.764C178.833,110.661,180.106,100.861,184.434,91.509C188.547,82.622,199.25,7.25,202.267,-26.554Z; M189.267,-26.304C174.5,-26,157.149,-26.696,142.567,-28.368C140.205,-3.921,140.076,39.816,133.825,46.067C127.574,52.318,108.19,42.098,95.221,38.982C70.602,28.628,61.038,26.203,36.419,15.849C36.419,15.849,-24.483,14.846,-24.483,14.846C-48.856,24.219,-73.228,33.592,-97.601,42.965C-97.601,42.965,-91.994,174.893,-91.994,174.893C-91.994,174.893,83.531,174.893,83.531,174.893C83.531,165.712,83.821,156.788,84.626,149.29C86.813,128.931,89.51,117.974,98.513,108.971C107.516,99.968,156.302,120.591,174.383,110.514C185.333,104.411,186.606,94.611,190.934,85.259C195.047,76.372,194,-17.25,189.267,-26.304Z; M194.767,-24.554C180.185,-26.226,162.649,-24.946,148.067,-26.618C145.705,-2.171,144.826,38.066,138.575,44.317C132.324,50.568,108.19,42.098,95.221,38.982C70.602,28.628,61.038,26.203,36.419,15.849C36.419,15.849,-24.483,14.846,-24.483,14.846C-48.856,24.219,-73.228,33.592,-97.601,42.965C-97.601,42.965,-91.994,174.893,-91.994,174.893C-91.994,174.893,83.531,174.893,83.531,174.893C83.531,165.712,83.821,156.788,84.626,149.29C86.813,128.931,89.51,117.974,98.513,108.971C107.516,99.968,154.052,123.091,172.133,113.014C183.083,106.911,184.356,97.111,188.684,87.759C192.797,78.872,196.396,8.204,194.767,-24.554Z; M194.767,-24.554C180.185,-26.226,162.649,-24.946,148.067,-26.618C145.705,-2.171,144.826,38.066,138.575,44.317C132.324,50.568,108.19,42.098,95.221,38.982C70.602,28.628,61.038,26.203,36.419,15.849C36.419,15.849,-24.483,14.846,-24.483,14.846C-48.856,24.219,-73.228,33.592,-97.601,42.965C-97.601,42.965,-91.994,174.893,-91.994,174.893C-91.994,174.893,83.531,174.893,83.531,174.893C83.531,165.712,83.821,156.788,84.626,149.29C86.813,128.931,89.51,117.974,98.513,108.971C107.516,99.968,154.052,123.091,172.133,113.014C183.083,106.911,184.356,97.111,188.684,87.759C192.797,78.872,196.396,8.204,194.767,-24.554Z" keyTimes="0; 0.32258; 0.645162; 0.967742; 1" keySplines="0 0 1 1; 0 0 1 1; 0 0 1 1; 0 0 1 1" fill="freeze" /></path></g><g id="i12"><path fill="#6295c7" d="M-63.934,174.893C-63.884,124.443,-76.501,35.662,-76.501,35.662C-76.501,35.662,-103.333,40.497,-114.332,51.496C-125.029,62.193,-135.138,156.738,-129.868,174.893C-129.868,174.893,-63.934,174.893,-63.934,174.893Z" /></g><g id="i5"><path fill="#1a1a1a" d="M136.032,48.751C139.494,52.4,142.955,56.049,146.417,59.698C147.398,60.732,148.378,61.766,149.359,62.8C149.906,63.376,150.959,63.392,151.503,62.8C152.07,62.182,152.086,61.272,151.503,60.657C148.041,57.008,144.579,53.358,141.117,49.709C140.136,48.675,139.156,47.642,138.175,46.608C137.628,46.032,136.576,46.016,136.032,46.608C135.465,47.226,135.449,48.136,136.032,48.751C136.032,48.751,136.032,48.751,136.032,48.751Z" /></g><g id="i1"><path fill="#1a1a1a" d="M131.364,51.499C131.345,54.367,131.326,57.234,131.307,60.102C131.302,60.895,132.008,61.654,132.823,61.618C133.649,61.581,134.332,60.952,134.338,60.102C134.357,57.234,134.376,54.367,134.395,51.499C134.4,50.706,133.695,49.947,132.88,49.983C132.054,50.02,131.37,50.649,131.364,51.499C131.364,51.499,131.364,51.499,131.364,51.499Z" /></g><g id="i2"><path fill="#1a1a1a" d="M-81.445,174.893C-81.752,169.157,-81.994,163.416,-82.161,157.674C-82.64,141.202,-82.545,124.713,-81.875,108.247C-81.497,98.969,-80.936,89.7,-80.195,80.444C-80.13,79.627,-80.938,78.929,-81.71,78.929C-82.584,78.929,-83.16,79.625,-83.226,80.444C-84.548,96.954,-85.294,113.51,-85.457,130.072C-85.604,145.017,-85.274,159.968,-84.476,174.893C-84.476,174.893,-81.445,174.893,-81.445,174.893Z" /></g></g><g id="i13"><g transform="translate(458.552,346.732)"><g transform="scale(2.49,2.49)"><animateTransform repeatCount="indefinite" type="scale" attributeName="transform" dur="1.292s" begin="0s" calcMode="spline" values="2.49 2.49; 2.49 2.49; 0 0; 2.49 2.49; 2.49 2.49" keyTimes="0; 0.322581; 0.387097; 0.451613; 1" keySplines="0 0 1 1; 0 0 1 1; 0 0 1 1; 0 0 1 1" fill="freeze" /><g transform="translate(10.22,90.469)"><g id="i2"><path fill="#1a1a1a" d="M-17.278,-91.571C-18.017,-86.741,-15.457,-82.333,-11.559,-81.724C-7.661,-81.115,-3.901,-84.537,-3.162,-89.367C-2.423,-94.197,-4.983,-98.606,-8.881,-99.215C-12.779,-99.824,-16.539,-96.401,-17.278,-91.571Z" /></g></g></g></g></g><g id="i14"><g transform="translate(610.32,365.601)"><g transform="scale(2.49,2.49)"><animateTransform repeatCount="indefinite" type="scale" attributeName="transform" dur="1.292s" begin="0s" calcMode="spline" values="2.49 2.49; 2.49 2.49; 0 0; 2.49 2.49; 2.49 2.49" keyTimes="0; 0.322581; 0.387097; 0.451613; 1" keySplines="0 0 1 1; 0 0 1 1; 0 0 1 1; 0 0 1 1" fill="freeze" /><g transform="translate(-50.731,82.891)"><g id="i2"><path fill="#1a1a1a" d="M57.789,-81.789C57.05,-76.959,53.29,-73.537,49.392,-74.146C45.494,-74.755,42.934,-79.163,43.673,-83.993C44.412,-88.823,48.172,-92.246,52.07,-91.637C55.968,-91.028,58.528,-86.619,57.789,-81.789Z" /></g></g></g></g></g></svg>